<svg width="48" height="48" viewBox="0 0 48 48" fill="none" xmlns="http://www.w3.org/2000/svg">
<circle cx="24" cy="24" r="22" fill="white" stroke="#EE0204" stroke-width="4"/>
<path d="M30.001 17.0715C30.001 13.9227 32.3362 12 35.001 12C37.6651 12 40.001 13.9227 40.001 17.0715V30.9278C40.001 34.0773 37.6651 36 35.001 36C32.3362 36 30.001 34.0773 30.001 30.9278V17.0715ZM33.3559 30.9278C33.3559 31.8891 34.0467 32.6183 35.001 32.6183C35.9545 32.6183 36.6453 31.8891 36.6453 30.9278V17.0715C36.6453 16.1102 35.9545 15.381 35.001 15.381C34.0467 15.381 33.3559 16.1102 33.3559 17.0715V30.9278Z" fill="black"/>
<path d="M18.001 17.0715C18.001 13.9227 20.3362 12 23.001 12C25.6651 12 28.001 13.9227 28.001 17.0715V30.9278C28.001 34.0773 25.6651 36 23.001 36C20.3362 36 18.001 34.0773 18.001 30.9278V17.0715ZM21.3559 30.9278C21.3559 31.8891 22.0467 32.6183 23.001 32.6183C23.9545 32.6183 24.6453 31.8891 24.6453 30.9278V17.0715C24.6453 16.1102 23.9545 15.381 23.001 15.381C22.0467 15.381 21.3559 16.1102 21.3559 17.0715V30.9278Z" fill="black"/>
<path d="M12.5016 16.2645L9.00234 19.4055L9.00098 15.0236L12.5003 12H16.001V36H12.5003L12.5016 16.2645Z" fill="black"/>
</svg>
