<svg width="78" height="78" viewBox="0 0 78 78" fill="none" xmlns="http://www.w3.org/2000/svg">
<circle cx="39" cy="39" r="37" fill="white" stroke="#EE0204" stroke-width="4"/>
<path d="M48.752 27.7412C48.752 22.6243 52.5467 19.5 56.8769 19.5C61.2061 19.5 65.002 22.6243 65.002 27.7412V50.2577C65.002 55.3757 61.2061 58.5 56.8769 58.5C52.5467 58.5 48.752 55.3757 48.752 50.2577V27.7412ZM54.2037 50.2577C54.2037 51.8198 55.3263 53.0048 56.8769 53.0048C58.4264 53.0048 59.549 51.8198 59.549 50.2577V27.7412C59.549 26.179 58.4264 24.9941 56.8769 24.9941C55.3263 24.9941 54.2037 26.179 54.2037 27.7412V50.2577Z" fill="black"/>
<path d="M35.2596 52.9974L46.0705 30.9328L46.0622 30.9162C46.5129 29.929 46.7614 28.842 46.7614 27.7007C46.7614 23.1721 42.8419 19.5 38.0067 19.5C33.1715 19.5 29.252 23.1721 29.252 27.7007H35.0466C35.0466 26.1693 36.3717 24.9283 38.0067 24.9283C39.6417 24.9283 40.9667 26.1693 40.9667 27.7007C40.9667 27.7007 41.2234 28.5262 40.7821 29.5988L29.3856 52.9974V58.5H47.127V52.9974H35.2596Z" fill="black"/>
<path d="M20.3155 26.4298L14.6292 31.534L14.627 24.4133L20.3133 19.5H26.002V58.5H20.3133L20.3155 26.4298Z" fill="black"/>
</svg>
