<svg width="48" height="48" viewBox="0 0 48 48" fill="none" xmlns="http://www.w3.org/2000/svg">
<circle cx="24" cy="24" r="22" fill="white" stroke="#EE0204" stroke-width="4"/>
<path d="M30.001 17.0715C30.001 13.9227 32.3362 12 35.001 12C37.6651 12 40.001 13.9227 40.001 17.0715V30.9278C40.001 34.0773 37.6651 36 35.001 36C32.3362 36 30.001 34.0773 30.001 30.9278V17.0715ZM33.3559 30.9278C33.3559 31.8891 34.0467 32.6183 35.001 32.6183C35.9545 32.6183 36.6453 31.8891 36.6453 30.9278V17.0715C36.6453 16.1102 35.9545 15.381 35.001 15.381C34.0467 15.381 33.3559 16.1102 33.3559 17.0715V30.9278Z" fill="black"/>
<path d="M21.698 32.6138L28.3508 19.0356L28.3457 19.0254C28.6231 18.4178 28.776 17.7489 28.776 17.0466C28.776 14.2597 26.364 12 23.3885 12C20.413 12 18.001 14.2597 18.001 17.0466H21.5669C21.5669 16.1042 22.3823 15.3405 23.3885 15.3405C24.3946 15.3405 25.2101 16.1042 25.2101 17.0466C25.2101 17.0466 25.368 17.5546 25.0965 18.2146L18.0832 32.6138V36H29.001V32.6138H21.698Z" fill="black"/>
<path d="M12.5016 16.2645L9.00234 19.4055L9.00098 15.0236L12.5003 12H16.001V36H12.5003L12.5016 16.2645Z" fill="black"/>
</svg>
