<svg width="48" height="48" viewBox="0 0 48 48" fill="none" xmlns="http://www.w3.org/2000/svg">
<circle cx="24" cy="24" r="22" fill="white" stroke="#EE0204" stroke-width="4"/>
<path d="M36.1162 17.0571C36.1162 14.2642 33.8521 12 31.0591 12C28.2661 12 26.002 14.2642 26.002 17.0571V30.9429C26.002 33.7358 28.2661 36 31.0591 36C33.8521 36 36.1162 33.7358 36.1162 30.9429V17.0571Z" fill="black"/>
<path d="M32.6878 17.0572C32.6878 16.1577 31.9587 15.4286 31.0592 15.4286C30.1598 15.4286 29.4307 16.1577 29.4307 17.0572V30.9429C29.4307 31.8423 30.1598 32.5714 31.0592 32.5714C31.9587 32.5714 32.6878 31.8423 32.6878 30.9429V17.0572Z" fill="white"/>
<path d="M22.2849 30.7558V31.1785C22.2849 31.3546 22.279 31.5425 22.2673 31.7421C22.2555 31.9417 22.2086 32.2234 22.1264 32.5874C21.7977 33.738 21.1637 34.6773 20.2244 35.4052C19.2851 36.1214 18.2167 36.4795 17.0192 36.4795C16.0564 36.4795 15.1524 36.1918 14.3071 35.6165C13.4617 35.0412 12.904 34.4483 12.634 33.8378C12.3757 33.2273 12.2055 32.7342 12.1233 32.3585C12.0411 31.9827 12 31.4485 12 30.7558V29.347H15.4342V30.4565C15.4342 30.75 15.44 31.0376 15.4518 31.3194C15.4635 31.5894 15.5868 31.9358 15.8216 32.3585C16.0682 32.7811 16.5026 32.9925 17.1248 32.9925C17.7471 32.9925 18.1874 32.7811 18.4457 32.3585C18.7157 31.9358 18.8507 31.4016 18.8507 30.7558V27.0399C18.8507 26.4411 18.704 26.0243 18.4104 25.7895C18.1287 25.5429 17.8469 25.3962 17.5651 25.3492C17.2951 25.2905 17.0016 25.2612 16.6846 25.2612H16.0682V22.2321H16.6846C18.1287 22.2321 18.8507 21.5628 18.8507 20.2244V17.3362C18.8507 16.9957 18.8331 16.7491 18.7979 16.5965C18.7627 16.4439 18.6159 16.2032 18.3576 15.8744C18.1111 15.5457 17.7236 15.3813 17.1953 15.3813C16.5965 15.3813 16.1504 15.5633 15.8568 15.9273C15.5751 16.2912 15.4342 16.7609 15.4342 17.3362V19.0973H12V17.3362C12 15.8216 12.4872 14.5536 13.4617 13.5322C14.4362 12.5107 15.6807 12 17.1953 12C18.0406 12 18.8507 12.2172 19.6256 12.6516C20.4122 13.0743 20.9875 13.5791 21.3515 14.1662C21.7272 14.7415 21.9738 15.2757 22.0912 15.7688C22.2203 16.2619 22.2849 16.7844 22.2849 17.3362V20.1539C22.2849 21.7155 21.5981 22.9013 20.2244 23.7114C20.9875 24.2397 21.5217 24.7798 21.827 25.3316C22.1323 25.8717 22.2849 26.5937 22.2849 27.4978V30.7558Z" fill="black"/>
</svg>
