<svg width="48" height="48" viewBox="0 0 48 48" fill="none" xmlns="http://www.w3.org/2000/svg">
<circle cx="24" cy="24" r="22" fill="white" stroke="#EE0204" stroke-width="4"/>
<path d="M36.1162 17.0571C36.1162 14.2642 33.8521 12 31.0591 12C28.2661 12 26.002 14.2642 26.002 17.0571V30.9429C26.002 33.7358 28.2661 36 31.0591 36C33.8521 36 36.1162 33.7358 36.1162 30.9429V17.0571Z" fill="black"/>
<path d="M32.6878 17.0572C32.6878 16.1577 31.9587 15.4286 31.0592 15.4286C30.1598 15.4286 29.4307 16.1577 29.4307 17.0572V30.9429C29.4307 31.8423 30.1598 32.5714 31.0592 32.5714C31.9587 32.5714 32.6878 31.8423 32.6878 30.9429V17.0572Z" fill="white"/>
<path d="M17.8357 36.4485V32.7765H11.0008V29.5788L15.9732 12.4485H19.5928L14.4622 29.5788H17.8357V22.7442H21.2971V29.5788H22.9487V32.7765H21.2971V36.4485H17.8357Z" fill="black"/>
</svg>
