<svg width="48" height="48" viewBox="0 0 48 48" fill="none" xmlns="http://www.w3.org/2000/svg">
<circle cx="24" cy="24" r="22" fill="white" stroke="#EE0204" stroke-width="4"/>
<path d="M35.6326 17.2616C35.6326 14.4692 33.3689 12.2056 30.5765 12.2056C27.7842 12.2056 25.5205 14.4692 25.5205 17.2616V31.1495C25.5205 33.9419 27.7842 36.2056 30.5765 36.2056C33.3689 36.2056 35.6326 33.9419 35.6326 31.1495V17.2616Z" fill="black"/>
<path d="M32.2051 17.2616C32.2051 16.3623 31.4761 15.6332 30.5767 15.6332C29.6773 15.6332 28.9482 16.3623 28.9482 17.2616V31.1496C28.9482 32.0489 29.6773 32.778 30.5767 32.778C31.4761 32.778 32.2051 32.0489 32.2051 31.1496V17.2616Z" fill="white"/>
<path d="M18.2361 20.4819C18.8399 20.4819 19.4436 20.6502 20.0474 20.9869C20.6512 21.3237 21.0982 21.7126 21.3885 22.1538C21.6904 22.5951 21.8936 23.0595 21.9981 23.5472C22.1142 24.0232 22.1722 24.5399 22.1722 25.0972V30.4441C22.1722 30.9666 22.1548 31.4078 22.12 31.7678C22.0852 32.1161 21.9458 32.6154 21.702 33.2656C21.4698 33.9042 20.895 34.5196 19.9778 35.1118C19.0605 35.7039 18.0794 36 17.0344 36C16.2216 36 15.4495 35.8084 14.718 35.4253C13.9981 35.0305 13.4349 34.5486 13.0286 33.9797C12.6338 33.3991 12.3609 32.8186 12.21 32.238C12.0706 31.6575 12.001 31.0595 12.001 30.4441V29.8345H15.4669V30.4441C15.4669 30.6763 15.4727 30.9144 15.4843 31.1582C15.4959 31.3904 15.6178 31.6865 15.85 32.0464C16.0939 32.4064 16.5119 32.5864 17.104 32.5864C17.7426 32.5864 18.1664 32.4122 18.3754 32.0639C18.596 31.7155 18.718 31.4427 18.7412 31.2453C18.7644 31.0363 18.776 30.8157 18.776 30.5835V30.1829V25.5501C18.776 25.3411 18.7702 25.1205 18.7586 24.8882C18.747 24.6444 18.6135 24.3425 18.358 23.9826C18.1142 23.6226 17.7078 23.4427 17.1389 23.4427C16.3029 23.4427 15.7455 23.8607 15.4669 24.6967H12.4364V12H22.1722V15.1698H15.4669V21.5617C16.2913 20.8418 17.2143 20.4819 18.2361 20.4819Z" fill="black"/>
</svg>
