<svg width="48" height="48" viewBox="0 0 48 48" fill="none" xmlns="http://www.w3.org/2000/svg">
<circle cx="24" cy="24" r="22" fill="white" stroke="#EE0204" stroke-width="4"/>
<path d="M34.818 17.056C34.818 14.2637 32.7719 12 30.2479 12C27.7239 12 25.6777 14.2637 25.6777 17.056V30.944C25.6777 33.7363 27.7239 36 30.2479 36C32.7719 36 34.818 33.7363 34.818 30.944V17.056Z" fill="black"/>
<path d="M31.7198 17.0562C31.7198 16.1568 31.0608 15.4277 30.2478 15.4277C29.4349 15.4277 28.7759 16.1568 28.7759 17.0562V30.9441C28.7759 31.8435 29.4349 32.5726 30.2478 32.5726C31.0608 32.5726 31.7198 31.8435 31.7198 30.9441V17.0562Z" fill="white"/>
<path d="M21.7729 23.8264C21.9403 24.1283 22.0501 24.4592 22.1024 24.8191C22.1652 25.1791 22.1966 25.6203 22.1966 26.1428V30.7059C22.1966 31.2981 22.1443 31.838 22.0397 32.3257C21.9455 32.8133 21.6264 33.5448 21.0823 34.5202C20.5383 35.4955 19.4816 36.0528 17.9122 36.1921C16.9496 36.1921 16.0812 35.9599 15.307 35.4955C14.5432 35.031 14.0044 34.4737 13.6905 33.8235C13.3767 33.1733 13.1831 32.6276 13.1099 32.1863C13.0366 31.7451 13 31.2516 13 30.7059V26.9614C13 26.4389 13.0105 26.0673 13.0314 25.8467C13.0523 25.6145 13.1256 25.3068 13.2511 24.9236L17.5041 12.1921H20.9725L17.5041 22.1718C17.9331 22.0093 18.3935 21.928 18.8852 21.928H19.1677C20.329 22.0905 21.1974 22.7233 21.7729 23.8264ZM18.8538 25.6029C18.5295 25.1268 18.1005 24.8888 17.5669 24.8888C17.2844 24.8888 17.0176 24.9875 16.7665 25.1849C16.5259 25.3707 16.3533 25.5971 16.2486 25.8641C16.144 26.1196 16.0917 26.4853 16.0917 26.9614V30.7059C16.0917 31.2284 16.2172 31.7161 16.4683 32.1689C16.7299 32.6217 17.1693 32.8133 17.7866 32.7437C18.3411 32.7437 18.7021 32.5347 18.8695 32.1167C19.0474 31.6987 19.1363 31.2284 19.1363 30.7059V26.9614C19.1363 26.6479 19.1206 26.3924 19.0892 26.195C19.0578 25.986 18.9794 25.7887 18.8538 25.6029Z" fill="black"/>
</svg>
