<svg width="48" height="48" viewBox="0 0 48 48" fill="none" xmlns="http://www.w3.org/2000/svg">
<circle cx="24" cy="24" r="22" fill="white" stroke="#EE0204" stroke-width="4"/>
<path d="M35.2857 17.0571C35.2857 14.2642 33.0215 12 30.2285 12C27.4355 12 25.1714 14.2642 25.1714 17.0571V30.9429C25.1714 33.7358 27.4355 36 30.2285 36C33.0215 36 35.2857 33.7358 35.2857 30.9429V17.0571Z" fill="black"/>
<path d="M31.8572 17.0572C31.8572 16.1577 31.1281 15.4286 30.2287 15.4286C29.3292 15.4286 28.6001 16.1577 28.6001 17.0572V30.9429C28.6001 31.8423 29.3292 32.5714 30.2287 32.5714C31.1281 32.5714 31.8572 31.8423 31.8572 30.9429V17.0572Z" fill="white"/>
<path d="M15.9864 18.1522H13V12.2142H23.14V15.3048L17.5838 35.9314H13.9897L19.7542 15.3742H15.9864V18.1522Z" fill="black"/>
</svg>
