<svg width="48" height="48" viewBox="0 0 48 48" fill="none" xmlns="http://www.w3.org/2000/svg">
<circle cx="24" cy="24" r="22" fill="white" stroke="#EE0204" stroke-width="4"/>
<path d="M35.2004 17.056C35.2004 14.2637 32.9368 12 30.1444 12C27.352 12 25.0884 14.2637 25.0884 17.056V30.944C25.0884 33.7363 27.352 36 30.1444 36C32.9368 36 35.2004 33.7363 35.2004 30.944V17.056Z" fill="black"/>
<path d="M31.773 17.0559C31.773 16.1566 31.0439 15.4275 30.1446 15.4275C29.2452 15.4275 28.5161 16.1566 28.5161 17.0559V30.9439C28.5161 31.8432 29.2452 32.5723 30.1446 32.5723C31.0439 32.5723 31.773 31.8432 31.773 30.9439V17.0559Z" fill="white"/>
<path d="M22.0836 26.9179C22.0836 24.0765 19.8263 21.7732 17.0418 21.7732C14.2573 21.7732 12 24.0765 12 26.9179V30.8621C12 33.7035 14.2573 36.0068 17.0418 36.0068C19.8263 36.0068 22.0836 33.7035 22.0836 30.8621V26.9179Z" fill="black"/>
<path d="M22.0836 17.1515C22.0836 14.3102 19.8263 12.0068 17.0418 12.0068C14.2573 12.0068 12 14.3102 12 17.1515V19.6381C12 22.4794 14.2573 24.7828 17.0418 24.7828C19.8263 24.7828 22.0836 22.4794 22.0836 19.6381V17.1515Z" fill="black"/>
<path d="M18.7392 26.472C18.7392 25.4776 17.9791 24.6714 17.0415 24.6714C16.1039 24.6714 15.3438 25.4776 15.3438 26.472V30.8622C15.3438 31.8566 16.1039 32.6628 17.0415 32.6628C17.9791 32.6628 18.7392 31.8566 18.7392 30.8622V26.472Z" fill="white"/>
<path d="M18.7392 17.1516C18.7392 16.1571 17.9791 15.351 17.0415 15.351C16.1039 15.351 15.3438 16.1571 15.3438 17.1516V20.2641C15.3438 21.2586 16.1039 22.0648 17.0415 22.0648C17.9791 22.0648 18.7392 21.2586 18.7392 20.2641V17.1516Z" fill="white"/>
</svg>
