<svg width="48" height="48" viewBox="0 0 48 48" fill="none" xmlns="http://www.w3.org/2000/svg">
<circle cx="24" cy="24" r="22" fill="white" stroke="#EE0204" stroke-width="4"/>
<path d="M36.001 17.0571C36.001 14.2642 33.7368 12 30.9439 12C28.1509 12 25.8867 14.2642 25.8867 17.0571V30.9429C25.8867 33.7358 28.1509 36 30.9439 36C33.7368 36 36.001 33.7358 36.001 30.9429V17.0571Z" fill="black"/>
<path d="M32.5726 17.0572C32.5726 16.1577 31.8434 15.4286 30.944 15.4286C30.0446 15.4286 29.3154 16.1577 29.3154 17.0572V30.9429C29.3154 31.8423 30.0446 32.5714 30.944 32.5714C31.8434 32.5714 32.5726 31.8423 32.5726 30.9429V17.0572Z" fill="white"/>
<path d="M12.3484 23.9509C12.1863 23.6152 12.0879 23.3027 12.0532 23.0133C12.0185 22.7123 12.0011 22.2667 12.0011 21.6763V16.8321C12.0011 16.3575 12.0879 15.8945 12.2616 15.443C12.4468 14.9916 12.6229 14.3407 13.5117 13.3942C14.1599 12.4681 15.329 12.0051 17.019 12.0051C18.6049 12.0051 19.855 12.5434 20.7694 13.6199C21.6839 14.6964 22.1411 15.9234 22.1411 17.3009V21.1728C22.1411 22.0757 21.9501 23.0017 21.5681 23.9509L17.0885 35.9314H13.2513L17.1927 25.9477C16.5792 26.0866 16.1046 26.156 15.7689 26.156C15.0396 26.156 14.3567 25.9477 13.72 25.5309C13.095 25.1142 12.6378 24.5876 12.3484 23.9509ZM17.1232 15.3388C16.556 15.3388 16.1277 15.5298 15.8383 15.9118C15.5605 16.2938 15.4216 16.7568 15.4216 17.3009V21.1728C15.4216 21.7632 15.5721 22.2493 15.8731 22.6313C16.1856 23.0133 16.637 23.2043 17.2274 23.2043C17.7483 23.2043 18.1303 23.0191 18.3733 22.6487C18.628 22.2783 18.7553 21.7863 18.7553 21.1728V17.3009C18.7553 16.7105 18.628 16.2359 18.3733 15.8771C18.1303 15.5183 17.7135 15.3388 17.1232 15.3388Z" fill="black"/>
</svg>
