<svg width="48" height="48" viewBox="0 0 48 48" fill="none" xmlns="http://www.w3.org/2000/svg">
<path d="M23.9318 44.4445C35.2607 44.4445 44.4446 35.2606 44.4446 23.9316C44.4446 12.6027 35.2607 3.41882 23.9318 3.41882C12.6028 3.41882 3.41895 12.6027 3.41895 23.9316C3.41895 35.2606 12.6028 44.4445 23.9318 44.4445Z" fill="white"/>
<path d="M33.5044 38.2906V19.1453C33.5044 16.4937 31.3697 14.359 28.7181 14.359H16.7522V11.9658L9.57275 16.7521L16.7522 21.5385V19.1453H28.7181V38.2906H33.5044Z" fill="black"/>
<path d="M23.9316 0C20.7889 1.70608e-06 17.6769 0.619013 14.7734 1.82169C11.8699 3.02437 9.23165 4.78717 7.0094 7.00942C4.78714 9.23168 3.02435 11.8699 1.82168 14.7734C0.619004 17.6769 -3.16967e-06 20.7889 0 23.9316C2.77458e-06 30.2787 2.52136 36.3658 7.00941 40.8539C11.4975 45.3419 17.5846 47.8633 23.9316 47.8633C27.0744 47.8633 30.1863 47.2443 33.0899 46.0416C35.9934 44.8389 38.6316 43.0761 40.8538 40.8539C43.0761 38.6316 44.8389 35.9934 46.0416 33.0899C47.2443 30.1864 47.8633 27.0744 47.8633 23.9316C47.8633 20.7889 47.2443 17.6769 46.0416 14.7734C44.8389 11.8699 43.0761 9.23167 40.8539 7.00941C38.6316 4.78715 35.9934 3.02436 33.0899 1.82168C30.1863 0.619003 27.0744 -3.77128e-06 23.9316 0ZM23.9316 6.83761C26.1764 6.83761 28.3993 7.27976 30.4732 8.13881C32.5472 8.99787 34.4316 10.257 36.0189 11.8443C37.6063 13.4317 38.8654 15.3161 39.7244 17.39C40.5835 19.464 41.0257 21.6868 41.0256 23.9316C41.0256 26.1765 40.5835 28.3993 39.7244 30.4732C38.8654 32.5472 37.6062 34.4316 36.0189 36.0189C34.4316 37.6063 32.5472 38.8654 30.4732 39.7245C28.3993 40.5835 26.1764 41.0257 23.9316 41.0256C19.398 41.0256 15.0501 39.2247 11.8443 36.0189C8.63859 32.8132 6.83762 28.4653 6.83761 23.9316C6.83761 19.398 8.63858 15.0501 11.8443 11.8443C15.0501 8.6386 19.398 6.83762 23.9316 6.83761Z" fill="#EE0204"/>
<path d="M8.70164 6.2842L6.28418 8.70166L39.1616 41.5791L41.5791 39.1616L8.70164 6.2842Z" fill="#EE0204"/>
</svg>
