<svg width="48" height="48" viewBox="0 0 48 48" fill="none" xmlns="http://www.w3.org/2000/svg">
<path fill-rule="evenodd" clip-rule="evenodd" d="M24.0008 0C37.2497 0 48 10.754 48 24.0033C48 37.2489 37.2497 48 24.0008 48C10.754 48.0001 0 37.2489 0 24.0033C0 10.754 10.754 0 24.0008 0Z" fill="#DB0000"/>
<path fill-rule="evenodd" clip-rule="evenodd" d="M24.0521 4.80164C34.6506 4.80164 43.2531 13.404 43.2531 24.0034C43.2531 34.6022 34.6506 43.2016 24.0521 43.2016C13.4537 43.2016 4.85449 34.6022 4.85449 24.0034C4.85449 13.404 13.4537 4.80164 24.0521 4.80164Z" fill="white"/>
<path d="M12.0222 18C11.6123 18.0016 10.8943 18.2999 10.7689 18.9428L10.0045 23.3914C9.57102 23.391 9.00163 23.921 9 24.2143V26.7C9.11988 27.0015 9.34685 27.2346 9.58668 27.4286V29.4428C9.58668 29.7515 10.0644 30 10.6578 30C11.2512 30 11.7289 29.7515 11.7289 29.4428V27.4286C13.1849 27.5948 14.6138 27.712 16 27.7114C17.3862 27.712 18.8151 27.5948 20.2711 27.4286V29.4428C20.2711 29.7515 20.7488 30 21.3422 30C21.9356 30 22.4133 29.7515 22.4133 29.4428V27.4286C22.6531 27.2346 22.8801 27.0015 23 26.7V24.2143C22.9984 23.921 22.429 23.391 21.9956 23.3914L21.2311 18.9428C21.1058 18.2999 20.3877 18.0016 19.9778 18H12.0222ZM12.9127 18.81H16H19.0873C19.7877 18.8104 20.5358 19.2013 20.6438 19.71L21.1051 22.3671C21.1157 22.4331 21.071 22.5694 21.0207 22.6457C20.9183 22.7767 20.7403 22.8516 20.4784 22.8514C20.378 22.8514 19.8473 22.8128 19.8473 22.8128C17.9461 22.7078 17.3559 22.7121 16 22.6928C14.6441 22.7121 14.0539 22.7078 12.1527 22.8128C12.1527 22.8128 11.622 22.8514 11.5216 22.8514C11.2597 22.8517 11.0817 22.7767 10.9793 22.6457C10.929 22.5694 10.8843 22.4331 10.8949 22.3671L11.3562 19.71C11.4642 19.2013 12.2123 18.8104 12.9127 18.81ZM14.8044 23.9229H17.1956L19.5956 24.1286L19.5947 24.5743H12.4044V24.1286L14.8044 23.9229ZM10.7778 24.0086C11.0371 24.0086 11.2858 24.1079 11.4692 24.2847C11.6525 24.4615 11.7556 24.7014 11.7555 24.9514C11.7555 25.2015 11.6525 25.4413 11.4692 25.6181C11.2858 25.7949 11.0371 25.8943 10.7778 25.8943C10.5185 25.8943 10.2698 25.7949 10.0864 25.6181C9.90302 25.4413 9.8 25.2015 9.8 24.9514C9.8 24.8276 9.82529 24.705 9.87442 24.5906C9.92356 24.4762 9.99558 24.3723 10.0864 24.2847C10.1772 24.1972 10.285 24.1277 10.4036 24.0803C10.5222 24.0329 10.6494 24.0086 10.7778 24.0086ZM21.2222 24.0086C21.4816 24.0086 21.7303 24.1079 21.9136 24.2847C22.097 24.4615 22.2 24.7014 22.2 24.9514C22.2 25.2015 22.097 25.4413 21.9136 25.6181C21.7303 25.7949 21.4816 25.8943 21.2222 25.8943C20.9629 25.8943 20.7142 25.7949 20.5308 25.6181C20.3475 25.4413 20.2445 25.2015 20.2445 24.9514C20.2444 24.8276 20.2697 24.705 20.3189 24.5906C20.368 24.4762 20.44 24.3723 20.5308 24.2847C20.6216 24.1972 20.7294 24.1277 20.8481 24.0803C20.9667 24.0329 21.0938 24.0086 21.2222 24.0086ZM12.4053 25.0286H19.5956V25.68H12.4044L12.4053 25.0286ZM12.4044 26.1343H19.5947L19.5956 26.58L17.1956 26.7857H14.8044L12.4044 26.58L12.4044 26.1343Z" fill="#DB0000"/>
<path d="M28.0222 18C27.6123 18.0016 26.8943 18.2999 26.7689 18.9428L26.0045 23.3914C25.571 23.391 25.0016 23.921 25 24.2143V26.7C25.1199 27.0015 25.3469 27.2346 25.5867 27.4286V29.4428C25.5867 29.7515 26.0644 30 26.6578 30C27.2512 30 27.7289 29.7515 27.7289 29.4428V27.4286C29.1849 27.5948 30.6138 27.712 32 27.7114C33.3862 27.712 34.8151 27.5948 36.2711 27.4286V29.4428C36.2711 29.7515 36.7488 30 37.3422 30C37.9356 30 38.4133 29.7515 38.4133 29.4428V27.4286C38.6531 27.2346 38.8801 27.0015 39 26.7V24.2143C38.9984 23.921 38.429 23.391 37.9956 23.3914L37.2311 18.9428C37.1058 18.2999 36.3877 18.0016 35.9778 18H28.0222ZM28.9127 18.81H32H35.0873C35.7877 18.8104 36.5358 19.2013 36.6438 19.71L37.1051 22.3671C37.1157 22.4331 37.071 22.5694 37.0207 22.6457C36.9183 22.7767 36.7403 22.8516 36.4784 22.8514C36.378 22.8514 35.8473 22.8128 35.8473 22.8128C33.9461 22.7078 33.3559 22.7121 32 22.6928C30.6441 22.7121 30.0539 22.7078 28.1527 22.8128C28.1527 22.8128 27.622 22.8514 27.5216 22.8514C27.2597 22.8517 27.0817 22.7767 26.9793 22.6457C26.929 22.5694 26.8843 22.4331 26.8949 22.3671L27.3562 19.71C27.4642 19.2013 28.2123 18.8104 28.9127 18.81ZM30.8044 23.9229H33.1956L35.5956 24.1286L35.5947 24.5743H28.4044V24.1286L30.8044 23.9229ZM26.7778 24.0086C27.0371 24.0086 27.2858 24.1079 27.4692 24.2847C27.6525 24.4615 27.7556 24.7014 27.7555 24.9514C27.7555 25.2015 27.6525 25.4413 27.4692 25.6181C27.2858 25.7949 27.0371 25.8943 26.7778 25.8943C26.5185 25.8943 26.2698 25.7949 26.0864 25.6181C25.903 25.4413 25.8 25.2015 25.8 24.9514C25.8 24.8276 25.8253 24.705 25.8744 24.5906C25.9236 24.4762 25.9956 24.3723 26.0864 24.2847C26.1772 24.1972 26.285 24.1277 26.4036 24.0803C26.5222 24.0329 26.6494 24.0086 26.7778 24.0086ZM37.2222 24.0086C37.4816 24.0086 37.7303 24.1079 37.9136 24.2847C38.097 24.4615 38.2 24.7014 38.2 24.9514C38.2 25.2015 38.097 25.4413 37.9136 25.6181C37.7303 25.7949 37.4816 25.8943 37.2222 25.8943C36.9629 25.8943 36.7142 25.7949 36.5308 25.6181C36.3475 25.4413 36.2445 25.2015 36.2445 24.9514C36.2444 24.8276 36.2697 24.705 36.3189 24.5906C36.368 24.4762 36.44 24.3723 36.5308 24.2847C36.6216 24.1972 36.7294 24.1277 36.8481 24.0803C36.9667 24.0329 37.0938 24.0086 37.2222 24.0086ZM28.4053 25.0286H35.5956V25.68H28.4044L28.4053 25.0286ZM28.4044 26.1343H35.5947L35.5956 26.58L33.1956 26.7857H30.8044L28.4044 26.58L28.4044 26.1343Z" fill="black"/>
</svg>
