<svg width="48" height="48" viewBox="0 0 48 48" fill="none" xmlns="http://www.w3.org/2000/svg">
<path d="M23.9316 47.8633C37.1487 47.8633 47.8633 37.1487 47.8633 23.9316C47.8633 10.7146 37.1487 0 23.9316 0C10.7146 0 0 10.7146 0 23.9316C0 37.1487 10.7146 47.8633 23.9316 47.8633Z" fill="#EE0204"/>
<path d="M23.9314 41.0257C33.3722 41.0257 41.0254 33.3724 41.0254 23.9317C41.0254 14.4909 33.3722 6.83765 23.9314 6.83765C14.4907 6.83765 6.8374 14.4909 6.8374 23.9317C6.8374 33.3724 14.4907 41.0257 23.9314 41.0257Z" fill="white"/>
<path d="M16.5468 30.0205V21.9315C16.5468 17.9541 19.7489 14.7521 23.7263 14.7521C27.7037 14.7521 30.9058 17.9541 30.9058 21.9315V34.7111H27.316V21.9315C27.316 19.9428 25.715 18.3418 23.7263 18.3418C21.7376 18.3418 20.1366 19.9428 20.1366 21.9315V30.0205H21.9314L18.3417 35.429L14.752 30.0205H16.5468Z" fill="black"/>
<path d="M8.70164 6.2842L6.28418 8.70166L39.1616 41.5791L41.5791 39.1616L8.70164 6.2842Z" fill="#EE0204"/>
</svg>
