<svg width="48" height="48" viewBox="0 0 48 48" fill="none" xmlns="http://www.w3.org/2000/svg">
<path fill-rule="evenodd" clip-rule="evenodd" d="M24.0008 0C37.2497 0 48 10.754 48 24.0033C48 37.2489 37.2497 48 24.0008 48C10.754 48.0001 0 37.2489 0 24.0033C0 10.754 10.754 0 24.0008 0Z" fill="#DB0000"/>
<path fill-rule="evenodd" clip-rule="evenodd" d="M24.0521 4.80164C34.6506 4.80164 43.2531 13.404 43.2531 24.0034C43.2531 34.6022 34.6506 43.2016 24.0521 43.2016C13.4537 43.2016 4.85449 34.6022 4.85449 24.0034C4.85449 13.404 13.4537 4.80164 24.0521 4.80164Z" fill="white"/>
<path d="M29.3746 22C29.0525 22.0013 28.4884 22.2499 28.3898 22.7857L27.7892 26.4929C27.4487 26.4925 27.0013 26.9342 27 27.1786V29.25C27.0942 29.5012 27.2725 29.6955 27.461 29.8571V31.5357C27.461 31.7929 27.8363 32 28.3025 32C28.7688 32 29.1441 31.7929 29.1441 31.5357V29.8571C30.2882 29.9957 31.4109 30.0933 32.5 30.0929C33.5891 30.0933 34.7118 29.9957 35.8559 29.8571V31.5357C35.8559 31.7929 36.2312 32 36.6975 32C37.1637 32 37.539 31.7929 37.539 31.5357V29.8571C37.7275 29.6955 37.9058 29.5012 38 29.25V27.1786C37.9987 26.9342 37.5514 26.4925 37.2108 26.4929L36.6102 22.7857C36.5117 22.2499 35.9475 22.0013 35.6254 22H29.3746ZM30.0743 22.675H32.5H34.9257C35.4761 22.6754 36.0638 23.001 36.1487 23.425L36.5111 25.6393C36.5195 25.6942 36.4843 25.8078 36.4448 25.8714C36.3644 25.9806 36.2245 26.043 36.0188 26.0429C35.9398 26.0429 35.5229 26.0107 35.5229 26.0107C34.0291 25.9232 33.5654 25.9268 32.5 25.9107C31.4346 25.9268 30.971 25.9232 29.4771 26.0107C29.4771 26.0107 29.0602 26.0429 28.9812 26.0429C28.7755 26.043 28.6356 25.9806 28.5552 25.8714C28.5157 25.8078 28.4805 25.6942 28.4889 25.6393L28.8513 23.425C28.9362 23.001 29.5239 22.6754 30.0743 22.675ZM31.5606 26.9357H33.4394L35.3251 27.1071L35.3244 27.4786H29.6749V27.1071L31.5606 26.9357ZM28.3968 27.0071C28.6006 27.0071 28.796 27.0899 28.9401 27.2373C29.0841 27.3846 29.1651 27.5845 29.1651 27.7929C29.1651 28.0012 29.0841 28.2011 28.9401 28.3484C28.796 28.4958 28.6006 28.5786 28.3968 28.5786C28.1931 28.5786 27.9977 28.4958 27.8536 28.3484C27.7095 28.2011 27.6286 28.0012 27.6286 27.7929C27.6286 27.6897 27.6484 27.5875 27.687 27.4922C27.7257 27.3968 27.7822 27.3102 27.8536 27.2373C27.9249 27.1643 28.0096 27.1064 28.1028 27.0669C28.196 27.0275 28.2959 27.0071 28.3968 27.0071ZM36.6032 27.0071C36.8069 27.0071 37.0023 27.0899 37.1464 27.2373C37.2905 27.3846 37.3714 27.5845 37.3714 27.7929C37.3714 28.0012 37.2905 28.2011 37.1464 28.3484C37.0023 28.4958 36.8069 28.5786 36.6032 28.5786C36.5023 28.5786 36.4024 28.5582 36.3092 28.5188C36.216 28.4793 36.1313 28.4214 36.0599 28.3484C35.9886 28.2755 35.932 28.1889 35.8934 28.0935C35.8548 27.9982 35.8349 27.896 35.8349 27.7929C35.8349 27.6897 35.8548 27.5875 35.8934 27.4922C35.932 27.3968 35.9886 27.3102 36.0599 27.2373C36.1313 27.1643 36.216 27.1064 36.3092 27.0669C36.4024 27.0275 36.5023 27.0071 36.6032 27.0071ZM29.6756 27.8571H35.3251V28.4H29.6749L29.6756 27.8571ZM29.6749 28.7786H35.3244L35.3251 29.15L33.4394 29.3214H31.5606L29.6749 29.15V28.7786Z" fill="black"/>
<path d="M11.9878 15C11.4406 15 11 15.4451 11 15.9981V29.7378C11 30.2907 11.4406 30.7358 11.9878 30.7358H12.0537V32H12.923V30.7358H13.1733V32H14.0425V30.7358H20.9575V32H21.8267V30.7358H22.077V32H22.9463V30.7358H23.0122C23.5594 30.7358 24 30.2907 24 29.7378V15.9981C24 15.4451 23.5594 15 23.0122 15H11.9878Z" fill="#F00A0A"/>
</svg>
