<svg width="48" height="48" viewBox="0 0 48 48" fill="none" xmlns="http://www.w3.org/2000/svg">
<g clip-path="url(#clip0_4419_65)">
<path d="M24 48C37.2548 48 48 37.2548 48 24C48 10.7452 37.2548 0 24 0C10.7452 0 0 10.7452 0 24C0 37.2548 10.7452 48 24 48Z" fill="#EE0204"/>
<path d="M24.2192 41.2752C33.7197 41.2752 41.4213 33.5735 41.4213 24.0731C41.4213 14.5726 33.7197 6.87097 24.2192 6.87097C14.7187 6.87097 7.01709 14.5726 7.01709 24.0731C7.01709 33.5735 14.7187 41.2752 24.2192 41.2752Z" fill="white"/>
<path d="M13.0438 10.1893L10.1846 12.4917L35.2766 37.6625L37.8096 35.4102L13.0438 10.1893Z" fill="#EE0204"/>
<path d="M18.7582 14.7231C18.0941 14.7255 16.4853 15.0713 16.1741 17.0752L15.1423 23.0727C15.1423 23.0727 13.7532 23.1506 13.7485 24.6206V27.6778C13.7485 27.6778 13.9604 28.4801 14.7657 28.9473V32.2898C14.7657 32.2898 15.2674 33.0054 16.344 33.0025C17.4131 33.0054 17.8298 32.2751 17.8298 32.2751V29.211C17.8298 29.211 22.1212 29.4349 23.9581 29.4419C25.809 29.4349 30.1027 29.211 30.1027 29.211V32.2751C30.1027 32.2751 30.52 33.0054 31.5903 33.0025C32.6652 33.0054 33.4426 32.2898 33.4426 32.2898V28.9473C34.2461 28.4801 34.3234 28.1983 34.3234 28.1983V24.1843C34.3414 23.0805 32.9287 22.936 32.9287 22.936L32.0342 17.0752C31.7206 15.0713 30.794 14.7255 30.1311 14.7231H18.7582ZM22.3187 16.24H25.6156C25.8881 16.2335 28.7547 16.4346 28.9124 16.4557C29.7751 16.5477 30.7656 17.0711 31.0024 18.2819L31.4252 21.2214C31.4252 21.2214 31.5841 22.1315 30.2719 22.1321C29.2269 22.1314 25.399 21.7721 24.0961 21.7791C22.8067 21.7721 18.9806 22.1315 17.9368 22.1321C16.6228 22.1314 16.6995 21.1178 16.6995 21.1178L17.0705 18.4545C17.3056 17.2437 18.1574 16.5477 19.0219 16.4557C19.1784 16.4346 22.0445 16.2335 22.3187 16.24ZM16.4236 23.9417C17.2172 23.9388 17.8543 24.5777 17.8467 25.3665C17.8543 26.1507 17.2172 26.7878 16.4236 26.7896C15.6441 26.7878 15.007 26.1507 15.0006 25.3665C15.007 24.5777 15.6441 23.9388 16.4236 23.9417ZM31.7676 23.9417C32.5612 23.9388 33.1983 24.5777 33.1907 25.3665C33.1983 26.1507 32.5612 26.7878 31.7676 26.7896C30.9881 26.7878 30.3493 26.1507 30.3428 25.3665C30.3493 24.5777 30.9881 23.9388 31.7676 23.9417ZM23.9581 24.0715C24.5125 24.0774 28.4412 24.1336 29.0519 24.211V24.9067H18.883V24.211C19.4914 24.1336 23.4177 24.0773 23.9581 24.0715ZM18.8666 25.634H29.0665V26.4546H18.8666V25.634ZM18.883 27.213H29.0519V27.9104C28.4412 27.9902 24.5125 28.1825 23.9581 28.1866C23.4177 28.1825 19.4914 27.9902 18.883 27.9104V27.213Z" fill="black"/>
</g>
<defs>
<clipPath id="clip0_4419_65">
<rect width="48" height="48" fill="white"/>
</clipPath>
</defs>
</svg>
