<svg width="48" height="48" viewBox="0 0 48 48" fill="none" xmlns="http://www.w3.org/2000/svg">
<path d="M23.9316 47.8633C37.1487 47.8633 47.8633 37.1487 47.8633 23.9316C47.8633 10.7146 37.1487 0 23.9316 0C10.7146 0 0 10.7146 0 23.9316C0 37.1487 10.7146 47.8633 23.9316 47.8633Z" fill="#EE0204"/>
<path d="M23.9314 41.0257C33.3722 41.0257 41.0254 33.3724 41.0254 23.9317C41.0254 14.4909 33.3722 6.83765 23.9314 6.83765C14.4907 6.83765 6.8374 14.4909 6.8374 23.9317C6.8374 33.3724 14.4907 41.0257 23.9314 41.0257Z" fill="white"/>
<path d="M18.5468 32.0205V23.9315C18.5468 19.9541 21.7489 16.7521 25.7263 16.7521C29.7037 16.7521 32.9058 19.9541 32.9058 23.9315V36.7111H29.316V23.9315C29.316 21.9428 27.715 20.3418 25.7263 20.3418C23.7376 20.3418 22.1366 21.9428 22.1366 23.9315V32.0205H23.9314L20.3417 37.429L16.752 32.0205H18.5468Z" fill="black"/>
<path d="M13.1625 16.7521H25.7266V20.3419H13.1625V22.1368L7.75391 18.547L13.1625 14.9573V16.7521Z" fill="black"/>
<path d="M8.70164 6.2842L6.28418 8.70166L39.1616 41.5791L41.5791 39.1616L8.70164 6.2842Z" fill="#EE0204"/>
</svg>
