<svg width="48" height="48" viewBox="0 0 48 48" fill="none" xmlns="http://www.w3.org/2000/svg">
<circle cx="24" cy="24" r="22.5" fill="#0046AA" stroke="white" stroke-width="3"/>
<path d="M33.07 9.00757C32.3494 8.96188 31.6308 9.12365 31 9.47358L15.43 18.4352C15.019 18.6709 14.6588 18.9851 14.3701 19.3598C14.0815 19.7346 13.87 20.1624 13.7479 20.6187C13.6258 21.0751 13.5955 21.551 13.6586 22.019C13.7218 22.4871 13.8772 22.9381 14.116 23.3462L16.816 27.9883C17.0512 28.3967 17.3649 28.7549 17.7391 29.0426C18.1133 29.3303 18.5408 29.5417 18.9971 29.6649C19.4534 29.7881 19.9296 29.8205 20.3985 29.7604C20.8675 29.7003 21.3199 29.5488 21.73 29.3146L24.97 27.5223C25.4596 28.3233 26.1902 28.9504 27.058 29.3146V32.4153C27.058 33.3661 27.4373 34.2778 28.1124 34.9501C28.7875 35.6223 29.7032 36 30.658 36H40V32.4153H30.658V29.3146C31.244 29.0689 31.7708 28.7019 32.2033 28.2379C32.6359 27.774 32.9644 27.2236 33.167 26.6235C33.3696 26.0234 33.4417 25.3873 33.3784 24.7573C33.3151 24.1274 33.1179 23.518 32.8 22.9698L37.354 20.353C37.7665 20.1188 38.1284 19.8057 38.4189 19.4316C38.7094 19.0576 38.9226 18.63 39.0464 18.1735C39.1702 17.7171 39.2021 17.2407 39.1403 16.7719C39.0784 16.3031 38.924 15.8512 38.686 15.442L35.986 10.7999C35.6928 10.2907 35.2785 9.86089 34.7795 9.54838C34.2804 9.23586 33.712 9.05016 33.124 9.00757M11.596 23.7584L4 25.013L5.35 27.3431L8.95 33.5445L10.3 35.8745L15.196 29.9599L11.596 23.7584Z" fill="white"/>
</svg>
