<svg width="48" height="48" viewBox="0 0 48 48" fill="none" xmlns="http://www.w3.org/2000/svg">
<circle cx="24" cy="24" r="22" fill="#0046AA" stroke="white" stroke-width="4"/>
<path d="M33.07 9.00757C32.3494 8.96188 31.6308 9.12365 31 9.47358L15.43 18.4352C15.019 18.6709 14.6588 18.9851 14.3701 19.3598C14.0815 19.7346 13.87 20.1624 13.7479 20.6187C13.6258 21.0751 13.5955 21.551 13.6586 22.019C13.7218 22.4871 13.8772 22.9381 14.116 23.3462L16.816 27.9883C17.0512 28.3967 17.3649 28.7549 17.7391 29.0426C18.1133 29.3303 18.5408 29.5417 18.9971 29.6649C19.4534 29.7881 19.9296 29.8205 20.3985 29.7604C20.8675 29.7003 21.3199 29.5488 21.73 29.3146L24.97 27.5223C25.4596 28.3233 26.1902 28.9504 27.058 29.3146V32.4153C27.058 33.3661 27.4373 34.2778 28.1124 34.9501C28.7875 35.6223 29.7032 36 30.658 36H40V32.4153H30.658V29.3146C31.244 29.0689 31.7708 28.7019 32.2033 28.2379C32.6359 27.774 32.9644 27.2236 33.167 26.6235C33.3696 26.0234 33.4417 25.3873 33.3784 24.7573C33.3151 24.1274 33.1179 23.518 32.8 22.9698L37.354 20.353C37.7665 20.1188 38.1284 19.8057 38.4189 19.4316C38.7094 19.0576 38.9226 18.63 39.0464 18.1735C39.1702 17.7171 39.2021 17.2407 39.1403 16.7719C39.0784 16.3031 38.924 15.8512 38.686 15.442L35.986 10.7999C35.6928 10.2907 35.2785 9.86089 34.7795 9.54838C34.2804 9.23586 33.712 9.05016 33.124 9.00757M11.596 23.7584L4 25.013L5.35 27.3431L8.95 33.5445L10.3 35.8745L15.196 29.9599L11.596 23.7584Z" fill="white"/>
<path d="M19.8175 25.7161C19.5681 25.8601 19.338 25.9537 19.1273 25.9968C18.9181 26.0344 18.7277 26.0405 18.5559 26.015C18.3856 25.984 18.2358 25.9365 18.1065 25.8726C17.9752 25.8052 17.8652 25.7347 17.7766 25.6612C17.6894 25.5822 17.6236 25.5163 17.5792 25.4634C17.5363 25.405 17.5148 25.3758 17.5148 25.3758L18.3254 24.9078C18.3254 24.9078 18.3494 24.9333 18.3972 24.9842C18.4486 25.0331 18.5232 25.0823 18.6212 25.132C18.7171 25.1782 18.8358 25.1998 18.9772 25.1967C19.1166 25.1901 19.2781 25.1338 19.4617 25.0278C19.6868 24.8978 19.8261 24.755 19.8795 24.5995C19.9309 24.4405 19.9186 24.2952 19.8426 24.1636C19.7746 24.0458 19.679 23.9763 19.5559 23.955C19.4362 23.9317 19.2815 23.9517 19.0917 24.0151L18.5203 24.2134C18.2905 24.2953 18.0615 24.3466 17.8333 24.3675C17.6087 24.3864 17.3989 24.355 17.2041 24.2736C17.0072 24.1886 16.8418 24.0301 16.7078 23.798C16.5718 23.5624 16.5127 23.324 16.5305 23.0828C16.5462 22.8382 16.6328 22.6081 16.7901 22.3925C16.9489 22.1715 17.172 21.978 17.4595 21.812C17.7297 21.656 17.9762 21.5669 18.1988 21.5445C18.423 21.5168 18.62 21.53 18.7899 21.5843C18.9613 21.6332 19.1043 21.7008 19.2187 21.7871C19.3367 21.8714 19.4246 21.9477 19.4825 22.0159C19.5438 22.0821 19.5745 22.1152 19.5745 22.1152L18.7846 22.5712C18.7846 22.5712 18.7637 22.5509 18.7219 22.5104C18.6835 22.4679 18.6238 22.4285 18.5427 22.3922C18.4617 22.3558 18.3604 22.3404 18.2389 22.3459C18.1208 22.3494 17.9821 22.3971 17.8227 22.4891C17.6045 22.6151 17.4749 22.7546 17.4339 22.9076C17.3909 23.0572 17.4014 23.1874 17.4654 23.2982C17.5314 23.4125 17.6309 23.4729 17.7639 23.4792C17.8969 23.4856 18.0503 23.4593 18.2242 23.4005L18.8328 23.1946C19.0627 23.1127 19.2902 23.0668 19.5154 23.0569C19.7406 23.047 19.9474 23.0892 20.1359 23.1836C20.3258 23.2726 20.4848 23.4279 20.6128 23.6496C20.7448 23.8782 20.8066 24.1174 20.7983 24.3669C20.788 24.6131 20.703 24.8538 20.5433 25.0892C20.3816 25.3212 20.1396 25.5301 19.8175 25.7161ZM21.8141 24.4941L19.5941 20.649L21.1789 19.734C21.4941 19.552 21.7917 19.4633 22.0715 19.468C22.3548 19.4707 22.6054 19.5408 22.8234 19.6783C23.0427 19.8102 23.2134 19.9819 23.3354 20.1932C23.4614 20.4114 23.5277 20.6503 23.5344 20.9097C23.5424 21.1637 23.4768 21.4141 23.3375 21.6608C23.2017 21.9055 22.9761 22.1189 22.6609 22.3009L21.8763 22.7539L22.6143 24.0321L21.8141 24.4941ZM21.5839 20.4354L20.7993 20.8884L21.4743 22.0576L22.2589 21.6046C22.394 21.5266 22.4906 21.4339 22.5486 21.3264C22.6047 21.2155 22.6303 21.1038 22.6253 20.9912C22.6218 20.8731 22.591 20.7639 22.533 20.6634C22.477 20.5664 22.3988 20.4869 22.2983 20.4248C22.2013 20.3607 22.0917 20.327 21.9696 20.3236C21.8476 20.3201 21.719 20.3574 21.5839 20.4354ZM25.3407 22.458L23.1207 18.6128L25.7708 17.0828L26.1728 17.7791L24.3229 18.8471L24.8209 19.7097L26.4318 18.7797L26.8188 19.45L25.2079 20.38L25.7389 21.2997L27.6148 20.2167L28.0168 20.913L25.3407 22.458ZM28.6746 20.5332L26.4546 16.688L29.1046 15.158L29.5066 15.8543L27.6568 16.9223L28.1548 17.7849L29.7656 16.8549L30.1526 17.5252L28.5418 18.4552L29.0728 19.3749L30.9486 18.2919L31.3506 18.9882L28.6746 20.5332ZM32.0085 18.6084L29.7885 14.7632L31.2434 13.9232C31.5552 13.7432 31.8608 13.6406 32.1604 13.6155C32.4614 13.5849 32.7429 13.6164 33.0047 13.71C33.2666 13.8036 33.5034 13.9417 33.7151 14.1243C33.9268 14.3069 34.1016 14.5178 34.2396 14.7568C34.3776 14.9958 34.4728 15.2526 34.5251 15.5273C34.5774 15.8019 34.5786 16.076 34.5287 16.3496C34.4789 16.6232 34.3664 16.8844 34.1914 17.1333C34.0178 17.3767 33.7752 17.5884 33.4634 17.7684L32.0085 18.6084ZM31.612 14.6457L30.9937 15.0027L32.3977 17.4345L33.016 17.0775C33.2689 16.9315 33.4427 16.7526 33.5375 16.5408C33.6358 16.327 33.6708 16.1036 33.6425 15.8706C33.6176 15.6355 33.5472 15.4175 33.4312 15.2166C33.3152 15.0157 33.1626 14.8474 32.9735 14.7118C32.7858 14.5708 32.5748 14.4893 32.3405 14.4676C32.1077 14.4403 31.8649 14.4997 31.612 14.6457Z" fill="#0046AA"/>
</svg>
