<svg width="48" height="48" viewBox="0 0 48 48" fill="none" xmlns="http://www.w3.org/2000/svg">
<circle cx="24" cy="24" r="22" fill="#0046AA" stroke="white" stroke-width="4"/>
<path d="M27.198 38.6334H23.1416V41.2066H27.198C27.908 41.2066 28.4846 40.6308 28.4846 39.9205C28.4846 39.2104 27.908 38.6334 27.198 38.6334Z" fill="#FEB829"/>
<path d="M20.3369 38.6335C19.6273 38.6335 19.0508 39.2105 19.0508 39.9204C19.0508 40.6309 19.6274 41.2066 20.3369 41.2066H23.1419V38.6334L20.3369 38.6335Z" fill="#F88818"/>
<path d="M19.2799 12.7572C16.8778 12.7572 14.477 9.89865 15.3917 7.72592C15.7343 6.9268 15.2772 6.69751 14.3622 7.4979C13.448 8.29915 11.7317 12.9865 17.3358 15.5019L19.2799 12.7572Z" fill="#E7CBAE"/>
<path d="M8.30173 14.3871C9.15984 14.1582 12.5328 13.8148 15.1625 15.3022C15.8831 15.7097 16.2488 15.875 16.8781 15.2444C17.9086 14.2144 16.9192 20.3334 16.4202 20.3334C15.7341 20.3334 14.0194 20.3334 12.7616 20.3334C10.8174 20.3334 9.00718 19.2766 8.18662 18.2754C7.15761 17.0173 6.08083 14.9792 8.30173 14.3871Z" fill="#D7950D"/>
<path d="M19.2768 12.2085C19.2567 12.2085 19.2274 12.2085 19.2073 12.2085C18.0417 12.2085 17.6174 12.739 17.1933 13.6925C16.7699 14.6457 15.5743 18.4468 15.2855 19.0957C14.8616 20.0501 14.8633 21.1099 14.8633 22.4873C14.8633 23.8651 14.8633 29.2064 14.8633 30.7959C14.8633 31.4925 15.312 32.2494 16.0208 32.9515C16.1635 33.0937 16.3149 33.2331 16.4671 33.369C25.5101 24.1772 21.368 14.7683 19.2768 12.2085Z" fill="#D7950D"/>
<path d="M19.2766 12.2085C21.3677 14.7683 25.5099 24.1772 16.4668 33.3691C17.2829 34.0997 18.1469 34.7398 18.1469 35.1414C18.1469 35.9891 17.7239 36.6251 17.7239 37.7903C17.7239 38.956 18.7649 39.7568 20.6435 39.7568C21.5975 39.7568 24.4004 39.7568 24.4004 39.7568V12.2085C23.1497 12.2085 20.4761 12.2085 19.2766 12.2085Z" fill="#FEB829"/>
<path d="M28.2617 12.7572C30.6633 12.7572 33.065 9.89865 32.1495 7.72592C31.8059 6.9268 32.2641 6.69751 33.1783 7.4979C34.0938 8.29915 35.8088 12.9865 30.206 15.5019L28.2617 12.7572Z" fill="#B4B0AB"/>
<path d="M31.8508 22.9464C31.8939 23.069 31.9211 23.1975 31.9211 23.3347C31.9211 23.9975 31.383 24.5364 30.7203 24.5364C30.0567 24.5364 29.519 23.9975 29.519 23.3347C29.519 23.3067 29.5262 23.2795 29.5283 23.2523C30.3953 22.5322 31.2735 22.7707 31.8508 22.9464Z" fill="#796A56"/>
<path d="M30.8393 15.0038C30.6406 14.4348 30.464 13.9545 30.3473 13.6925C29.9234 12.739 29.5 12.2085 28.3348 12.2085C27.1678 12.2085 24.4135 12.2085 23.1416 12.2085V39.7568C23.1416 39.7568 25.9436 39.7568 26.8976 39.7568C28.7766 39.7568 29.8176 38.956 29.8176 37.7903C29.8176 36.8535 29.5469 36.2578 29.4394 35.6201C22.2143 26.0994 27.4766 16.7323 30.8393 15.0038Z" fill="#F88818"/>
<path d="M31.5211 32.9515C32.2294 32.2494 32.6788 31.4925 32.6788 30.7959C32.6788 29.2064 32.6788 23.8651 32.6788 22.4873C32.6788 21.11 32.68 20.0501 32.2562 19.0958C32.047 18.6255 31.3617 16.5013 30.8395 15.0038C27.4767 16.7322 22.2146 26.0993 29.4395 35.62C29.4127 35.4648 29.3943 35.3079 29.3943 35.1414C29.3944 34.6644 30.6123 33.8536 31.5211 32.9515Z" fill="#D7950D"/>
<path d="M10.1308 17.8177C9.73012 17.4173 9.55922 16.216 10.5883 16.3319C11.6178 16.4448 14.2476 17.4742 14.2476 17.9318C14.2476 18.3896 12.1525 19.8398 10.1308 17.8177Z" fill="#796A56"/>
<path d="M39.6992 14.3871C38.8406 14.1582 35.4675 13.8148 32.8375 15.3022C32.1174 15.7097 31.7509 15.875 31.122 15.2444C30.0911 14.2144 31.0814 20.3334 31.5806 20.3334C32.2659 20.3334 33.9805 20.3334 35.2382 20.3334C37.1825 20.3334 38.9934 19.2766 39.8135 18.2754C40.8427 17.0173 41.9188 14.9792 39.6992 14.3871Z" fill="#D7950D"/>
<path d="M37.8687 17.8177C38.2699 17.4173 38.4406 16.216 37.4118 16.3319C36.3825 16.4448 33.7524 17.4742 33.7524 17.9318C33.7525 18.3896 35.8483 19.8398 37.8687 17.8177Z" fill="#796A56"/>
<path d="M15.6907 22.9464C15.6484 23.069 15.6206 23.1975 15.6206 23.3347C15.6206 23.9975 16.1585 24.5364 16.8218 24.5364C17.4844 24.5364 18.0223 23.9975 18.0223 23.3347C18.0223 23.3067 18.0164 23.2795 18.0135 23.2523C17.1465 22.5322 16.2681 22.7707 15.6907 22.9464Z" fill="#231815"/>
<path d="M31.8508 22.9464C31.8939 23.069 31.9211 23.1975 31.9211 23.3347C31.9211 23.9975 31.383 24.5364 30.7203 24.5364C30.0567 24.5364 29.519 23.9975 29.519 23.3347C29.519 23.3067 29.5262 23.2795 29.5283 23.2523C30.3953 22.5322 31.2735 22.7707 31.8508 22.9464Z" fill="#231815"/>
<path d="M20.6393 35.8222C21.6899 35.4176 21.884 37.8699 21.3142 38.0728C20.2632 38.4481 19.6636 36.1967 20.6393 35.8222Z" fill="#3E3A39"/>
<path d="M26.5379 35.8222C25.4869 35.4176 25.2924 37.8699 25.8627 38.0728C26.9133 38.4481 27.514 36.1967 26.5379 35.8222Z" fill="#3E3A39"/>
</svg>
