<svg width="48" height="48" viewBox="0 0 48 48" fill="none" xmlns="http://www.w3.org/2000/svg">
<circle cx="24" cy="24" r="22" fill="#0046AA" stroke="white" stroke-width="4"/>
<path d="M27.927 18.703C27.6942 18.56 27.3895 18.6324 27.2464 18.8651L23.4895 24.9702C23.3463 25.2029 23.4188 25.5076 23.6515 25.6508C23.7323 25.7005 23.8218 25.7243 23.9103 25.7243C24.0764 25.7243 24.2386 25.6406 24.3321 25.4888L28.0891 19.3837C28.2322 19.151 28.1596 18.8462 27.927 18.703Z" fill="white"/>
<path d="M22.3424 23.3749C22.4385 23.5131 22.5924 23.5871 22.7489 23.5871C22.8464 23.5871 22.9449 23.5582 23.031 23.4985C23.2553 23.3424 23.3107 23.0341 23.1546 22.8099L20.3369 18.7594C20.1809 18.5352 19.8726 18.4799 19.6483 18.6358C19.424 18.7919 19.3686 19.1002 19.5247 19.3245L22.3424 23.3749Z" fill="white"/>
<path d="M23.8533 21.9017C23.8962 21.9131 23.9391 21.9186 23.9815 21.9186C24.2 21.9186 24.4 21.7726 24.4591 21.5515L26.0441 15.6226C26.1147 15.3587 25.9579 15.0875 25.6939 15.0169C25.4298 14.9464 25.1588 15.1031 25.0883 15.367L23.5033 21.2959C23.4326 21.5598 23.5894 21.831 23.8533 21.9017Z" fill="white"/>
<path d="M26.6237 23.7769C26.7086 23.9545 26.8857 24.0582 27.0703 24.0582C27.1419 24.0582 27.2145 24.0426 27.2834 24.0097L28.6335 23.3641C28.88 23.2462 28.9842 22.9508 28.8664 22.7043C28.7486 22.4579 28.4531 22.3537 28.2067 22.4715L26.8566 23.1171C26.6101 23.235 26.5059 23.5304 26.6237 23.7769Z" fill="white"/>
<path d="M22.2944 19.7558C22.3534 19.9772 22.5534 20.1232 22.772 20.1232C22.8142 20.1232 22.8571 20.1177 22.8998 20.1064C23.1638 20.0359 23.3207 19.7649 23.2503 19.5009L22.3111 15.9786C22.2407 15.7147 21.9697 15.5579 21.7057 15.6281C21.4417 15.6985 21.2848 15.9696 21.3552 16.2336L22.2944 19.7558Z" fill="white"/>
<path d="M23.3107 26.8943H23.2774V26.4544C23.2774 26.0566 22.9545 25.8507 22.6799 25.7659L22.3106 25.0715C22.2603 24.9768 22.1671 24.9125 22.0607 24.8991L19.236 24.5426L16.6169 20.3927C16.5565 20.2969 16.4512 20.2389 16.338 20.2389H9.00382C8.86852 20.2389 8.74699 20.3215 8.69719 20.4472L7.17337 24.2943H5.74198C5.00447 24.2943 4.58151 24.7173 4.58151 25.4548V26.9152C4.24834 26.9954 4 27.2959 4 27.6533V28.2239C4 28.6424 4.34051 28.9828 4.75902 28.9828H6.4874C6.65675 30.1226 7.64151 31 8.82762 31C10.0138 31 10.9987 30.1226 11.168 28.9828L16.9016 28.9829C17.0709 30.1227 18.0557 31 19.2417 31C20.4279 31 21.4128 30.1227 21.5821 28.9829H23.3106C23.7291 28.9829 24.0695 28.6424 24.0695 28.2239V27.6533C24.0696 27.2348 23.7292 26.8943 23.3107 26.8943ZM8.82762 29.5159C8.34126 29.5159 7.94559 29.1201 7.94559 28.6337C7.94559 28.1472 8.34126 27.7515 8.82762 27.7515C9.31407 27.7515 9.70982 28.1472 9.70982 28.6337C9.70982 29.1202 9.31407 29.5159 8.82762 29.5159ZM19.2418 29.5159C18.7554 29.5159 18.3598 29.1201 18.3598 28.6337C18.3598 28.1472 18.7554 27.7515 19.2418 27.7515C19.7283 27.7515 20.1241 28.1472 20.1241 28.6337C20.124 29.1202 19.7283 29.5159 19.2418 29.5159Z" fill="white"/>
<path d="M43.0619 26.9152V25.4548C43.0619 24.7173 42.639 24.2943 41.9014 24.2943H40.47L38.9462 20.4472C38.8964 20.3215 38.7748 20.2389 38.6395 20.2389H32.3328C32.2196 20.2389 32.1143 20.2969 32.0539 20.3927L29.4347 24.5426L26.61 24.8991C26.5037 24.9125 26.4105 24.9767 26.3601 25.0715L25.9908 25.7659C25.7162 25.8506 25.3933 26.0566 25.3933 26.4544V26.8943H25.3601C24.9416 26.8943 24.6011 27.2348 24.6011 27.6533V28.2239C24.6011 28.6424 24.9415 28.9829 25.3601 28.9829H27.0886C27.2579 30.1227 28.2428 31 29.4289 31C30.615 31 31.5998 30.1227 31.7691 28.9829L36.4753 28.9828C36.6447 30.1226 37.6295 31 38.8157 31C40.0018 31 40.9866 30.1226 41.156 28.9828H42.8843C43.3028 28.9828 43.6434 28.6424 43.6434 28.2239V27.6533C43.6434 27.2959 43.3952 26.9954 43.0619 26.9152ZM29.429 29.5159C28.9426 29.5159 28.5467 29.1201 28.5467 28.6337C28.5467 28.1472 28.9425 27.7515 29.429 27.7515C29.9154 27.7515 30.3111 28.1472 30.3111 28.6337C30.3111 29.1202 29.9154 29.5159 29.429 29.5159ZM38.8158 29.5159C38.3294 29.5159 37.9336 29.1201 37.9336 28.6337C37.9336 28.1472 38.3294 27.7515 38.8158 27.7515C39.3022 27.7515 39.6979 28.1472 39.6979 28.6337C39.6979 29.1202 39.3022 29.5159 38.8158 29.5159Z" fill="white"/>
</svg>
