<svg width="48" height="48" viewBox="0 0 48 48" fill="none" xmlns="http://www.w3.org/2000/svg">
<path d="M23.9998 47.3142C36.8759 47.3142 47.3141 36.8761 47.3141 23.9999C47.3141 11.1238 36.8759 0.685669 23.9998 0.685669C11.1237 0.685669 0.685547 11.1238 0.685547 23.9999C0.685547 36.8761 11.1237 47.3142 23.9998 47.3142Z" fill="white"/>
<path d="M34.819 17.5701C34.819 15.0461 32.7729 13 30.2488 13C27.7248 13 25.6787 15.0461 25.6787 17.5701V30.1234C25.6787 32.6474 27.7248 34.6935 30.2488 34.6935C32.7729 34.6935 34.819 32.6474 34.819 30.1234V17.5701Z" fill="black"/>
<path d="M31.7208 17.5702C31.7208 16.7573 31.0617 16.0983 30.2488 16.0983C29.4359 16.0983 28.7769 16.7573 28.7769 17.5702V30.1235C28.7769 30.9364 29.4359 31.5954 30.2488 31.5954C31.0617 31.5954 31.7208 30.9364 31.7208 30.1235V17.5702Z" fill="white"/>
<path d="M18.6194 20.8351C19.1634 20.8351 19.7075 20.9868 20.2515 21.2902C20.7956 21.5936 21.1984 21.9441 21.46 22.3417C21.732 22.7392 21.9151 23.1577 22.0093 23.5972C22.1139 24.0261 22.1662 24.4917 22.1662 24.9939V29.8119C22.1662 30.2828 22.1505 30.6803 22.1191 31.0047C22.0877 31.3186 21.9622 31.7684 21.7425 32.3544C21.5332 32.9298 21.0153 33.4843 20.1888 34.0179C19.3622 34.5515 18.4781 34.8183 17.5365 34.8183C16.8041 34.8183 16.1084 34.6457 15.4492 34.3004C14.8005 33.9447 14.2931 33.5105 13.9269 32.9978C13.5712 32.4747 13.3253 31.9515 13.1893 31.4284C13.0638 30.9053 13.001 30.3665 13.001 29.8119V29.2627H16.1241V29.8119C16.1241 30.0212 16.1293 30.2357 16.1398 30.4554C16.1502 30.6646 16.2601 30.9314 16.4693 31.2558C16.689 31.5801 17.0657 31.7423 17.5993 31.7423C18.1747 31.7423 18.5566 31.5854 18.7449 31.2715C18.9437 30.9576 19.0536 30.7117 19.0745 30.5339C19.0954 30.3455 19.1059 30.1467 19.1059 29.9375V29.5765V25.402C19.1059 25.2136 19.1007 25.0149 19.0902 24.8056C19.0797 24.5859 18.9594 24.3139 18.7292 23.9895C18.5095 23.6652 18.1433 23.503 17.6307 23.503C16.8774 23.503 16.3752 23.8797 16.1241 24.633H13.3933V13.1921H22.1662V16.0484H16.1241V21.8081C16.8669 21.1594 17.6987 20.8351 18.6194 20.8351Z" fill="black"/>
<path d="M38.294 6.29244L37.8188 5.81726L5.81722 37.8189L6.2924 38.2941L38.294 6.29244Z" fill="black"/>
<path d="M39.2662 7.26461L38.791 6.78943L6.78939 38.7911L7.26457 39.2662L39.2662 7.26461Z" fill="black"/>
<path d="M40.2384 8.23677L39.7632 7.7616L7.76156 39.7632L8.23674 40.2384L40.2384 8.23677Z" fill="black"/>
<path d="M41.2105 9.20893L40.7354 8.73376L8.73373 40.7354L9.2089 41.2106L41.2105 9.20893Z" fill="black"/>
<path d="M42.1827 10.1811L41.7075 9.70593L9.7059 41.7076L10.1811 42.1827L42.1827 10.1811Z" fill="black"/>
<path d="M24 0C20.8483 2.0466e-07 17.7274 0.620755 14.8156 1.82687C11.9038 3.03298 9.25805 4.80082 7.02944 7.02942C4.80084 9.25803 3.033 11.9038 1.82689 14.8156C0.620777 17.7274 -2.8652e-06 20.8483 0 24C-8.1862e-07 27.1517 0.620776 30.2726 1.82689 33.1844C3.033 36.0962 4.80084 38.742 7.02944 40.9706C9.25805 43.1992 11.9038 44.967 14.8156 46.1731C17.7274 47.3792 20.8483 48 24 48C27.1517 48 30.2726 47.3792 33.1844 46.1731C36.0962 44.967 38.742 43.1992 40.9706 40.9706C43.1992 38.742 44.967 36.0962 46.1731 33.1844C47.3792 30.2726 48 27.1517 48 24C48 20.8483 47.3792 17.7274 46.1731 14.8156C44.967 11.9038 43.1992 9.25803 40.9706 7.02942C38.742 4.80082 36.0962 3.03298 33.1844 1.82687C30.2726 0.620756 27.1517 -1.84192e-06 24 0ZM24 3.40803C29.4613 3.40803 34.699 5.57752 38.5607 9.43926C42.4225 13.301 44.592 18.5387 44.592 24C44.592 26.7042 44.0594 29.3819 43.0245 31.8802C41.9897 34.3785 40.4729 36.6486 38.5607 38.5607C36.6486 40.4729 34.3785 41.9897 31.8802 43.0246C29.3819 44.0594 26.7042 44.592 24 44.592C21.2958 44.592 18.6181 44.0594 16.1198 43.0246C13.6214 41.9897 11.3514 40.4729 9.43924 38.5607C7.5271 36.6486 6.01031 34.3786 4.97547 31.8802C3.94062 29.3819 3.40799 26.7042 3.40799 24C3.40799 21.2958 3.94062 18.6181 4.97547 16.1198C6.01031 13.6215 7.52712 11.3514 9.43926 9.43926C11.3514 7.52712 13.6215 6.01033 16.1198 4.97548C18.6181 3.94064 21.2958 3.40802 24 3.40803Z" fill="#0046AA"/>
</svg>
