<svg width="48" height="48" viewBox="0 0 48 48" fill="none" xmlns="http://www.w3.org/2000/svg">
<path d="M23.9998 47.3142C36.8759 47.3142 47.3141 36.8761 47.3141 23.9999C47.3141 11.1238 36.8759 0.685669 23.9998 0.685669C11.1237 0.685669 0.685547 11.1238 0.685547 23.9999C0.685547 36.8761 11.1237 47.3142 23.9998 47.3142Z" fill="white"/>
<path d="M38.294 6.29244L37.8188 5.81726L5.81722 37.8189L6.2924 38.2941L38.294 6.29244Z" fill="black"/>
<path d="M39.2662 7.2646L38.791 6.78943L6.78939 38.7911L7.26457 39.2662L39.2662 7.2646Z" fill="black"/>
<path d="M40.2384 8.23677L39.7632 7.7616L7.76156 39.7632L8.23674 40.2384L40.2384 8.23677Z" fill="black"/>
<path d="M41.2105 9.20894L40.7354 8.73376L8.73373 40.7354L9.2089 41.2106L41.2105 9.20894Z" fill="black"/>
<path d="M42.1827 10.1811L41.7075 9.70593L9.7059 41.7076L10.1811 42.1827L42.1827 10.1811Z" fill="black"/>
<path d="M24 0C20.8483 1.71095e-06 17.7274 0.620781 14.8156 1.8269C11.9038 3.03301 9.25803 4.80084 7.02942 7.02945C4.80082 9.25806 3.03299 11.9038 1.82688 14.8156C0.620772 17.7274 -3.15171e-06 20.8483 0 24C2.18236e-06 30.3652 2.52856 36.4697 7.02943 40.9706C11.5303 45.4714 17.6348 48 24 48C27.1517 48 30.2726 47.3792 33.1844 46.1731C36.0962 44.967 38.7419 43.1992 40.9706 40.9706C43.1992 38.742 44.967 36.0962 46.1731 33.1844C47.3792 30.2726 48 27.1517 48 24C48 20.8483 47.3792 17.7274 46.1731 14.8156C44.967 11.9038 43.1992 9.25804 40.9706 7.02943C38.742 4.80082 36.0962 3.033 33.1844 1.82688C30.2726 0.620771 27.1517 -3.87211e-06 24 0ZM24 3.40802C26.7042 3.40802 29.3819 3.94065 31.8802 4.97549C34.3785 6.01034 36.6486 7.52713 38.5607 9.43928C40.4729 11.3514 41.9897 13.6215 43.0245 16.1198C44.0593 18.6181 44.592 21.2958 44.592 24C44.592 26.7042 44.0593 29.3819 43.0245 31.8802C41.9897 34.3786 40.4729 36.6486 38.5607 38.5608C36.6486 40.4729 34.3785 41.9897 31.8802 43.0245C29.3819 44.0594 26.7042 44.592 24 44.592C21.2958 44.592 18.6181 44.0594 16.1198 43.0245C13.6214 41.9897 11.3514 40.4729 9.43924 38.5608C7.52709 36.6486 6.0103 34.3786 4.97546 31.8802C3.94061 29.3819 3.40798 26.7042 3.40798 24C3.40798 21.2958 3.94061 18.6181 4.97546 16.1198C6.0103 13.6215 7.5271 11.3514 9.43924 9.43928C11.3514 7.52713 13.6214 6.01034 16.1198 4.97549C18.6181 3.94065 21.2958 3.40802 24 3.40802Z" fill="#0046AA"/>
<path d="M34.2013 17.5694C34.2013 15.0458 32.1555 13 29.6319 13C27.1083 13 25.0625 15.0458 25.0625 17.5694V30.1206C25.0625 32.6442 27.1083 34.69 29.6319 34.69C32.1555 34.69 34.2013 32.6442 34.2013 30.1206V17.5694Z" fill="black"/>
<path d="M31.1036 17.5692C31.1036 16.7564 30.4447 16.0975 29.6319 16.0975C28.8191 16.0975 28.1602 16.7564 28.1602 17.5692V30.1205C28.1602 30.9333 28.8191 31.5922 29.6319 31.5922C30.4447 31.5922 31.1036 30.9333 31.1036 30.1205V17.5692Z" fill="white"/>
<path d="M22.114 26.4826C22.114 23.9148 20.074 21.8331 17.5575 21.8331C15.041 21.8331 13.001 23.9148 13.001 26.4826V30.0473C13.001 32.6151 15.041 34.6968 17.5575 34.6968C20.074 34.6968 22.114 32.6151 22.114 30.0473V26.4826Z" fill="black"/>
<path d="M22.114 17.6563C22.114 15.0885 20.074 13.0068 17.5575 13.0068C15.041 13.0068 13.001 15.0885 13.001 17.6563V19.9036C13.001 22.4715 15.041 24.5531 17.5575 24.5531C20.074 24.5531 22.114 22.4715 22.114 19.9036V17.6563Z" fill="black"/>
<path d="M19.0916 26.0797C19.0916 25.181 18.4047 24.4524 17.5573 24.4524C16.7099 24.4524 16.0229 25.181 16.0229 26.0797V30.0473C16.0229 30.9461 16.7099 31.6746 17.5573 31.6746C18.4047 31.6746 19.0916 30.9461 19.0916 30.0473V26.0797Z" fill="white"/>
<path d="M19.0916 17.6564C19.0916 16.7576 18.4047 16.0291 17.5573 16.0291C16.7099 16.0291 16.0229 16.7576 16.0229 17.6564V20.4693C16.0229 21.3681 16.7099 22.0967 17.5573 22.0967C18.4047 22.0967 19.0916 21.3681 19.0916 20.4693V17.6564Z" fill="white"/>
</svg>
