<svg width="48" height="48" viewBox="0 0 48 48" fill="none" xmlns="http://www.w3.org/2000/svg">
<path d="M23.9998 47.3142C36.8759 47.3142 47.3141 36.8761 47.3141 23.9999C47.3141 11.1238 36.8759 0.685669 23.9998 0.685669C11.1237 0.685669 0.685547 11.1238 0.685547 23.9999C0.685547 36.8761 11.1237 47.3142 23.9998 47.3142Z" fill="white"/>
<path d="M34.819 17.5701C34.819 15.0461 32.7729 13 30.2488 13C27.7248 13 25.6787 15.0461 25.6787 17.5701V30.1234C25.6787 32.6474 27.7248 34.6935 30.2488 34.6935C32.7729 34.6935 34.819 32.6474 34.819 30.1234V17.5701Z" fill="black"/>
<path d="M31.7208 17.5702C31.7208 16.7573 31.0617 16.0983 30.2488 16.0983C29.4359 16.0983 28.7769 16.7573 28.7769 17.5702V30.1235C28.7769 30.9364 29.4359 31.5954 30.2488 31.5954C31.0617 31.5954 31.7208 30.9364 31.7208 30.1235V17.5702Z" fill="white"/>
<path d="M21.7738 23.6756C21.9412 23.9477 22.0511 24.2458 22.1034 24.5702C22.1662 24.8945 22.1976 25.2921 22.1976 25.7629V29.8747C22.1976 30.4083 22.1453 30.8948 22.0406 31.3342C21.9465 31.7737 21.6274 32.4328 21.0833 33.3117C20.5393 34.1905 19.4825 34.6927 17.9132 34.8183C16.9506 34.8183 16.0822 34.609 15.308 34.1905C14.5442 33.772 14.0054 33.2698 13.6915 32.6839C13.3776 32.098 13.1841 31.6063 13.1108 31.2087C13.0376 30.8111 13.001 30.3664 13.001 29.8747V26.5005C13.001 26.0297 13.0114 25.6949 13.0324 25.4961C13.0533 25.2869 13.1265 25.0096 13.2521 24.6643L17.5051 13.1921H20.9735L17.5051 22.1847C17.9341 22.0382 18.3944 21.965 18.8862 21.965H19.1687C20.33 22.1115 21.1984 22.6817 21.7738 23.6756ZM18.8548 25.2764C18.5304 24.8474 18.1015 24.633 17.5679 24.633C17.2854 24.633 17.0186 24.7219 16.7675 24.8998C16.5269 25.0672 16.3542 25.2712 16.2496 25.5118C16.145 25.742 16.0927 26.0716 16.0927 26.5005V29.8747C16.0927 30.3455 16.2182 30.785 16.4693 31.193C16.7309 31.601 17.1703 31.7737 17.7876 31.7109C18.3421 31.7109 18.7031 31.5226 18.8705 31.1459C19.0483 30.7693 19.1373 30.3455 19.1373 29.8747V26.5005C19.1373 26.218 19.1216 25.9879 19.0902 25.81C19.0588 25.6217 18.9803 25.4438 18.8548 25.2764Z" fill="black"/>
<path d="M38.294 6.29244L37.8188 5.81726L5.81723 37.8189L6.29241 38.294L38.294 6.29244Z" fill="black"/>
<path d="M39.2662 7.26461L38.791 6.78943L6.7894 38.791L7.26458 39.2662L39.2662 7.26461Z" fill="black"/>
<path d="M40.2384 8.23677L39.7632 7.7616L7.76157 39.7632L8.23674 40.2384L40.2384 8.23677Z" fill="black"/>
<path d="M41.2105 9.20894L40.7354 8.73376L8.73373 40.7354L9.20891 41.2105L41.2105 9.20894Z" fill="black"/>
<path d="M42.1827 10.1811L41.7075 9.70593L9.7059 41.7075L10.1811 42.1827L42.1827 10.1811Z" fill="black"/>
<path d="M24 0C20.8483 2.0466e-07 17.7274 0.620793 14.8156 1.82691C11.9038 3.03302 9.25804 4.80085 7.02943 7.02946C4.80083 9.25806 3.033 11.9038 1.82689 14.8156C0.620777 17.7274 -2.8652e-06 20.8483 0 24C4.13334e-07 30.3652 2.52856 36.4697 7.02943 40.9705C11.5303 45.4714 17.6348 48 24 48C27.1517 48 30.2726 47.3792 33.1844 46.1731C36.0962 44.967 38.742 43.1991 40.9706 40.9705C43.1992 38.7419 44.967 36.0962 46.1731 33.1844C47.3792 30.2726 48 27.1517 48 24C48 20.8483 47.3792 17.7274 46.1731 14.8156C44.967 11.9038 43.1992 9.25806 40.9706 7.02946C38.742 4.80085 36.0962 3.03302 33.1844 1.82691C30.2726 0.620794 27.1517 -1.84191e-06 24 0ZM24 3.40802C29.4613 3.40802 34.699 5.57755 38.5607 9.43929C42.4225 13.301 44.592 18.5387 44.592 24C44.592 26.7042 44.0594 29.3819 43.0245 31.8802C41.9897 34.3786 40.4729 36.6486 38.5607 38.5607C36.6486 40.4729 34.3785 41.9897 31.8802 43.0245C29.3819 44.0594 26.7042 44.592 24 44.592C21.2958 44.592 18.6181 44.0594 16.1198 43.0245C13.6214 41.9897 11.3514 40.4729 9.43924 38.5607C7.5271 36.6486 6.0103 34.3786 4.97545 31.8802C3.94061 29.3819 3.40799 26.7042 3.40799 24C3.40799 21.2958 3.94062 18.6181 4.97546 16.1198C6.01031 13.6215 7.5271 11.3514 9.43924 9.43929C11.3514 7.52715 13.6214 6.01032 16.1198 4.97548C18.6181 3.94064 21.2958 3.40802 24 3.40802Z" fill="#0046AA"/>
</svg>
