<svg width="48" height="48" viewBox="0 0 48 48" fill="none" xmlns="http://www.w3.org/2000/svg">
<path d="M23.9998 47.3142C36.8759 47.3142 47.3141 36.8761 47.3141 23.9999C47.3141 11.1238 36.8759 0.685669 23.9998 0.685669C11.1237 0.685669 0.685547 11.1238 0.685547 23.9999C0.685547 36.8761 11.1237 47.3142 23.9998 47.3142Z" fill="white"/>
<path d="M38.294 6.29244L37.8188 5.81726L5.81722 37.8189L6.2924 38.2941L38.294 6.29244Z" fill="black"/>
<path d="M39.2662 7.2646L38.791 6.78943L6.78939 38.7911L7.26457 39.2662L39.2662 7.2646Z" fill="black"/>
<path d="M40.2384 8.23677L39.7632 7.7616L7.76156 39.7632L8.23674 40.2384L40.2384 8.23677Z" fill="black"/>
<path d="M41.2105 9.20894L40.7354 8.73376L8.73373 40.7354L9.2089 41.2106L41.2105 9.20894Z" fill="black"/>
<path d="M42.1827 10.1811L41.7075 9.70593L9.7059 41.7076L10.1811 42.1827L42.1827 10.1811Z" fill="black"/>
<path d="M24 0C20.8483 1.71095e-06 17.7274 0.620781 14.8156 1.8269C11.9038 3.03301 9.25803 4.80084 7.02942 7.02945C4.80082 9.25806 3.03299 11.9038 1.82688 14.8156C0.620772 17.7274 -3.15171e-06 20.8483 0 24C2.18236e-06 30.3652 2.52856 36.4697 7.02943 40.9706C11.5303 45.4714 17.6348 48 24 48C27.1517 48 30.2726 47.3792 33.1844 46.1731C36.0962 44.967 38.7419 43.1992 40.9706 40.9706C43.1992 38.742 44.967 36.0962 46.1731 33.1844C47.3792 30.2726 48 27.1517 48 24C48 20.8483 47.3792 17.7274 46.1731 14.8156C44.967 11.9038 43.1992 9.25804 40.9706 7.02943C38.742 4.80082 36.0962 3.033 33.1844 1.82688C30.2726 0.620771 27.1517 -3.87211e-06 24 0ZM24 3.40802C26.7042 3.40802 29.3819 3.94065 31.8802 4.97549C34.3785 6.01034 36.6486 7.52713 38.5607 9.43928C40.4729 11.3514 41.9897 13.6215 43.0245 16.1198C44.0593 18.6181 44.592 21.2958 44.592 24C44.592 26.7042 44.0593 29.3819 43.0245 31.8802C41.9897 34.3786 40.4729 36.6486 38.5607 38.5608C36.6486 40.4729 34.3785 41.9897 31.8802 43.0245C29.3819 44.0594 26.7042 44.592 24 44.592C21.2958 44.592 18.6181 44.0594 16.1198 43.0245C13.6214 41.9897 11.3514 40.4729 9.43924 38.5608C7.52709 36.6486 6.0103 34.3786 4.97546 31.8802C3.94061 29.3819 3.40798 26.7042 3.40798 24C3.40798 21.2958 3.94061 18.6181 4.97546 16.1198C6.0103 13.6215 7.5271 11.3514 9.43924 9.43928C11.3514 7.52713 13.6214 6.01034 16.1198 4.97549C18.6181 3.94065 21.2958 3.40802 24 3.40802Z" fill="#0046AA"/>
<path d="M33.6911 17.5704C33.6911 15.0462 31.6448 13 29.1207 13C26.5965 13 24.5503 15.0462 24.5503 17.5704V30.1196C24.5503 32.6438 26.5965 34.69 29.1207 34.69C31.6448 34.69 33.6911 32.6438 33.6911 30.1196V17.5704Z" fill="black"/>
<path d="M30.5926 17.5705C30.5926 16.7576 29.9336 16.0986 29.1207 16.0986C28.3079 16.0986 27.6489 16.7576 27.6489 17.5705V30.1197C27.6489 30.9325 28.3079 31.5915 29.1207 31.5915C29.9336 31.5915 30.5926 30.9325 30.5926 30.1197V17.5705Z" fill="white"/>
<path d="M13.3148 23.8006C13.1684 23.4973 13.0795 23.2148 13.0481 22.9533C13.0167 22.6813 13.001 22.2785 13.001 21.745V17.367C13.001 16.9381 13.0795 16.5196 13.2364 16.1116C13.4038 15.7036 13.563 15.1154 14.3662 14.26C14.952 13.4231 16.0086 13.0046 17.536 13.0046C18.9691 13.0046 20.0989 13.4911 20.9254 14.464C21.7518 15.4369 22.165 16.5458 22.165 17.7907V21.2899C22.165 22.1059 21.9924 22.9428 21.6472 23.8006L17.5987 34.628H14.1308L17.6929 25.6052C17.1384 25.7307 16.7095 25.7935 16.4061 25.7935C15.7471 25.7935 15.1299 25.6052 14.5545 25.2286C13.9896 24.852 13.5764 24.376 13.3148 23.8006ZM17.6301 16.0175C17.1175 16.0175 16.7304 16.1901 16.4689 16.5353C16.2178 16.8805 16.0923 17.299 16.0923 17.7907V21.2899C16.0923 21.8235 16.2283 22.2628 16.5003 22.6081C16.7827 22.9533 17.1907 23.1259 17.7243 23.1259C18.195 23.1259 18.5402 22.9585 18.7599 22.6238C18.9901 22.289 19.1051 21.8444 19.1051 21.2899V17.7907C19.1051 17.2571 18.9901 16.8282 18.7599 16.5039C18.5402 16.1796 18.1636 16.0175 17.6301 16.0175Z" fill="black"/>
</svg>
