<svg width="60" height="50" viewBox="0 0 60 50" fill="none" xmlns="http://www.w3.org/2000/svg">
<path d="M56.4282 2.99097V46.991H2.82568V2.99097H56.4282Z" fill="#0046AA" stroke="white" stroke-width="4"/>
<path d="M3.22559 36.9909V29.1189L7.92981 24.1269L12.634 29.1189V32.6709H14.0261V23.7909L14.9861 22.3029V13.6629L17.6263 8.19092L20.2664 13.6629V22.3029L21.2264 23.7909V27.3429L24.3466 25.6629L30.2509 29.3589V34.7349H31.7869V21.4389H32.555V15.9669H33.083V10.5909H38.4592V17.6949H39.2753V26.9589H41.3874V32.4309H42.2514V23.4549L45.9476 20.1909L50.0278 23.8389V28.3029L53.3399 25.5669L56.2201 28.7349V36.9909H3.22559Z" fill="white"/>
<path d="M0.825684 48.991L58.4284 0.990967L0.825684 48.991Z" fill="black"/>
<path d="M0.825684 48.991L58.4284 0.990967" stroke="#F00A0A" stroke-width="2.58"/>
</svg>
