<svg width="48" height="48" viewBox="0 0 48 48" fill="none" xmlns="http://www.w3.org/2000/svg">
<path d="M23.9998 47.3142C36.8759 47.3142 47.3141 36.8761 47.3141 23.9999C47.3141 11.1238 36.8759 0.685669 23.9998 0.685669C11.1237 0.685669 0.685547 11.1238 0.685547 23.9999C0.685547 36.8761 11.1237 47.3142 23.9998 47.3142Z" fill="white"/>
<path d="M14.4002 18.5143C13.2408 18.5173 10.9151 18.9223 9.75105 19.7897C9.12646 21.5768 8.89371 22.3369 7.68018 23.6846L8.2836 26.1257C8.3371 26.5272 8.36378 26.7091 8.70876 26.9143L8.78065 28.0578C8.808 28.4795 9.1762 28.8009 9.57274 28.8C9.75107 28.797 10.2161 28.6098 10.231 28.0046V26.7977H14.4002H18.5693V28.0046C18.5842 28.6098 19.0493 28.797 19.2276 28.8C19.6241 28.8009 19.9923 28.4795 20.0197 28.0578L20.0916 26.9143C20.4366 26.7091 20.4632 26.5272 20.5167 26.1257L21.1202 23.6846C19.9066 22.3369 19.6739 21.5768 19.0493 19.7897C17.8853 18.9223 15.5596 18.5173 14.4002 18.5143ZM14.4002 19.1863C16.1971 19.2209 16.786 19.4137 18.5693 20.2149C18.9812 21.9189 19.7319 23.0616 20.4482 23.8628L19.8996 26.1257C19.7966 26.3723 19.5993 26.5288 19.4744 26.6057L19.3647 28.0046C19.3512 28.0802 19.3329 28.1947 19.255 28.1829C19.1942 28.1874 19.1682 28.0829 19.1727 28.0046V26.1257H14.4002H9.62759V28.0046C9.6321 28.0829 9.60612 28.1874 9.54531 28.1829C9.46744 28.1947 9.4491 28.0802 9.4356 28.0046L9.32589 26.6057C9.20104 26.5288 9.00374 26.3723 8.90074 26.1257L8.35217 23.8628C9.06847 23.0616 9.81918 21.9189 10.231 20.2149C12.0143 19.4137 12.6033 19.2209 14.4002 19.1863Z" fill="black"/>
<path d="M33.5999 18.5143C32.4405 18.5173 30.1148 18.9223 28.9508 19.7897C28.3262 21.5768 28.0934 22.3369 26.8799 23.6846L27.4833 26.1257C27.5368 26.5272 27.5635 26.7091 27.9085 26.9143L27.9804 28.0578C28.0077 28.4795 28.3759 28.8009 28.7724 28.8C28.9508 28.797 29.4158 28.6098 29.4307 28.0046V26.7977H33.5999H37.769V28.0046C37.7839 28.6098 38.249 28.797 38.4273 28.8C38.8238 28.8009 39.1921 28.4795 39.2194 28.0578L39.2913 26.9143C39.6363 26.7091 39.663 26.5272 39.7164 26.1257L40.3199 23.6846C39.1063 22.3369 38.8736 21.5768 38.249 19.7897C37.085 18.9223 34.7593 18.5173 33.5999 18.5143ZM33.5999 19.1863C35.3968 19.2209 35.9858 19.4137 37.769 20.2149C38.1809 21.9189 38.9316 23.0616 39.6479 23.8628L39.0993 26.1257C38.9963 26.3723 38.799 26.5288 38.6742 26.6057L38.5644 28.0046C38.551 28.0802 38.5326 28.1947 38.4547 28.1829C38.3939 28.1874 38.3679 28.0829 38.3725 28.0046V26.1257H33.5999H28.8273V28.0046C28.8318 28.0829 28.8058 28.1874 28.745 28.1829C28.6672 28.1947 28.6488 28.0802 28.6353 28.0046L28.5256 26.6057C28.4007 26.5288 28.2034 26.3723 28.1005 26.1257L27.5519 23.8628C28.2682 23.0616 29.0189 21.9189 29.4307 20.2149C31.214 19.4137 31.803 19.2209 33.5999 19.1863Z" fill="black"/>
<path d="M38.294 6.29244L37.8188 5.81726L5.81722 37.8189L6.2924 38.2941L38.294 6.29244Z" fill="black"/>
<path d="M39.2662 7.2646L38.791 6.78943L6.78939 38.7911L7.26457 39.2662L39.2662 7.2646Z" fill="black"/>
<path d="M40.2384 8.23677L39.7632 7.7616L7.76156 39.7632L8.23674 40.2384L40.2384 8.23677Z" fill="black"/>
<path d="M41.2105 9.20894L40.7354 8.73376L8.73373 40.7354L9.2089 41.2106L41.2105 9.20894Z" fill="black"/>
<path d="M42.1827 10.1811L41.7075 9.70593L9.7059 41.7076L10.1811 42.1827L42.1827 10.1811Z" fill="black"/>
<path d="M24 0C20.8483 1.71095e-06 17.7274 0.620781 14.8156 1.8269C11.9038 3.03301 9.25803 4.80084 7.02942 7.02945C4.80082 9.25806 3.03299 11.9038 1.82688 14.8156C0.620772 17.7274 -3.15171e-06 20.8483 0 24C2.18236e-06 30.3652 2.52856 36.4697 7.02943 40.9706C11.5303 45.4714 17.6348 48 24 48C27.1517 48 30.2726 47.3792 33.1844 46.1731C36.0962 44.967 38.7419 43.1992 40.9706 40.9706C43.1992 38.742 44.967 36.0962 46.1731 33.1844C47.3792 30.2726 48 27.1517 48 24C48 20.8483 47.3792 17.7274 46.1731 14.8156C44.967 11.9038 43.1992 9.25804 40.9706 7.02943C38.742 4.80082 36.0962 3.033 33.1844 1.82688C30.2726 0.620771 27.1517 -3.87211e-06 24 0ZM24 3.40802C26.7042 3.40802 29.3819 3.94065 31.8802 4.97549C34.3785 6.01034 36.6486 7.52713 38.5607 9.43928C40.4729 11.3514 41.9897 13.6215 43.0245 16.1198C44.0593 18.6181 44.592 21.2958 44.592 24C44.592 26.7042 44.0593 29.3819 43.0245 31.8802C41.9897 34.3786 40.4729 36.6486 38.5607 38.5608C36.6486 40.4729 34.3785 41.9897 31.8802 43.0245C29.3819 44.0594 26.7042 44.592 24 44.592C21.2958 44.592 18.6181 44.0594 16.1198 43.0245C13.6214 41.9897 11.3514 40.4729 9.43924 38.5608C7.52709 36.6486 6.0103 34.3786 4.97546 31.8802C3.94061 29.3819 3.40798 26.7042 3.40798 24C3.40798 21.2958 3.94061 18.6181 4.97546 16.1198C6.0103 13.6215 7.5271 11.3514 9.43924 9.43928C11.3514 7.52713 13.6214 6.01034 16.1198 4.97549C18.6181 3.94065 21.2958 3.40802 24 3.40802Z" fill="#0046AA"/>
</svg>
