<svg width="163" height="48" viewBox="0 0 163 48" fill="none" xmlns="http://www.w3.org/2000/svg">
<path d="M0 0H163V48H0V0Z" fill="#0046AA"/>
<circle cx="82" cy="24" r="22" fill="white" stroke="#EE0204" stroke-width="4"/>
<path d="M88.001 17.0715C88.001 13.9227 90.3362 12 93.001 12C95.6651 12 98.001 13.9227 98.001 17.0715V30.9278C98.001 34.0773 95.6651 36 93.001 36C90.3362 36 88.001 34.0773 88.001 30.9278V17.0715ZM91.3559 30.9278C91.3559 31.8891 92.0467 32.6183 93.001 32.6183C93.9545 32.6183 94.6453 31.8891 94.6453 30.9278V17.0715C94.6453 16.1102 93.9545 15.381 93.001 15.381C92.0467 15.381 91.3559 16.1102 91.3559 17.0715V30.9278Z" fill="black"/>
<path d="M79.698 32.6138L86.3508 19.0356L86.3457 19.0254C86.6231 18.4178 86.776 17.7489 86.776 17.0466C86.776 14.2597 84.364 12 81.3885 12C78.413 12 76.001 14.2597 76.001 17.0466H79.5669C79.5669 16.1042 80.3823 15.3405 81.3885 15.3405C82.3946 15.3405 83.2101 16.1042 83.2101 17.0466C83.2101 17.0466 83.368 17.5546 83.0965 18.2146L76.0832 32.6138V36H87.001V32.6138H79.698Z" fill="black"/>
<path d="M70.5016 16.2645L67.0023 19.4055L67.001 15.0236L70.5003 12H74.001V36H70.5003L70.5016 16.2645Z" fill="black"/>
<circle cx="29" cy="24" r="22" fill="white" stroke="#EE0204" stroke-width="4"/>
<path d="M35.001 17.0715C35.001 13.9227 37.3362 12 40.001 12C42.6651 12 45.001 13.9227 45.001 17.0715V30.9278C45.001 34.0773 42.6651 36 40.001 36C37.3362 36 35.001 34.0773 35.001 30.9278V17.0715ZM38.3559 30.9278C38.3559 31.8891 39.0467 32.6183 40.001 32.6183C40.9545 32.6183 41.6453 31.8891 41.6453 30.9278V17.0715C41.6453 16.1102 40.9545 15.381 40.001 15.381C39.0467 15.381 38.3559 16.1102 38.3559 17.0715V30.9278Z" fill="black"/>
<path d="M26.698 32.6138L33.3508 19.0356L33.3457 19.0254C33.6231 18.4178 33.776 17.7489 33.776 17.0466C33.776 14.2597 31.364 12 28.3885 12C25.413 12 23.001 14.2597 23.001 17.0466H26.5669C26.5669 16.1042 27.3823 15.3405 28.3885 15.3405C29.3946 15.3405 30.2101 16.1042 30.2101 17.0466C30.2101 17.0466 30.368 17.5546 30.0965 18.2146L23.0832 32.6138V36H34.001V32.6138H26.698Z" fill="black"/>
<path d="M17.5016 16.2645L14.0023 19.4055L14.001 15.0236L17.5003 12H21.001V36H17.5003L17.5016 16.2645Z" fill="black"/>
<circle cx="135" cy="24" r="22" fill="white" stroke="#EE0204" stroke-width="4"/>
<path d="M141.001 17.0715C141.001 13.9227 143.336 12 146.001 12C148.665 12 151.001 13.9227 151.001 17.0715V30.9278C151.001 34.0773 148.665 36 146.001 36C143.336 36 141.001 34.0773 141.001 30.9278V17.0715ZM144.356 30.9278C144.356 31.8891 145.047 32.6183 146.001 32.6183C146.954 32.6183 147.645 31.8891 147.645 30.9278V17.0715C147.645 16.1102 146.954 15.381 146.001 15.381C145.047 15.381 144.356 16.1102 144.356 17.0715V30.9278Z" fill="black"/>
<path d="M129.001 17.0715C129.001 13.9227 131.336 12 134.001 12C136.665 12 139.001 13.9227 139.001 17.0715V30.9278C139.001 34.0773 136.665 36 134.001 36C131.336 36 129.001 34.0773 129.001 30.9278V17.0715ZM132.356 30.9278C132.356 31.8891 133.047 32.6183 134.001 32.6183C134.954 32.6183 135.645 31.8891 135.645 30.9278V17.0715C135.645 16.1102 134.954 15.381 134.001 15.381C133.047 15.381 132.356 16.1102 132.356 17.0715V30.9278Z" fill="black"/>
<path d="M123.502 16.2645L120.002 19.4055L120.001 15.0236L123.5 12H127.001V36H123.5L123.502 16.2645Z" fill="black"/>
</svg>
