<svg width="48" height="48" viewBox="0 0 48 48" fill="none" xmlns="http://www.w3.org/2000/svg">
<g clip-path="url(#clip0_4414_30)">
<path d="M24 48C37.2548 48 48 37.2548 48 24C48 10.7452 37.2548 0 24 0C10.7452 0 0 10.7452 0 24C0 37.2548 10.7452 48 24 48Z" fill="#EE0204"/>
<path d="M24 43.0731C34.4934 43.0731 43 34.5665 43 24.0731C43 13.5797 34.4934 5.07312 24 5.07312C13.5066 5.07312 5 13.5797 5 24.0731C5 34.5665 13.5066 43.0731 24 43.0731Z" fill="#0046AA"/>
<path d="M12.2086 8.07312L8 11.6711L36.1576 40.0731L40 36.5318L12.2086 8.07312Z" fill="#EE0204"/>
</g>
<defs>
<clipPath id="clip0_4414_30">
<rect width="48" height="48" fill="white"/>
</clipPath>
</defs>
</svg>
