<svg width="48" height="48" viewBox="0 0 48 48" fill="none" xmlns="http://www.w3.org/2000/svg">
<circle cx="24" cy="24" r="22" fill="#0046AA" stroke="white" stroke-width="4"/>
<path d="M43.3032 29.0824V31.1776C42.312 30.9699 41.5285 30.6077 40.8459 30.2873C39.8013 29.765 38.9644 29.397 37.7655 29.397C37.7121 29.397 37.7121 29.397 37.7121 29.397C36.5072 29.4503 35.6703 29.8184 34.6316 30.2873C33.5929 30.7561 32.2218 31.3913 30.4471 31.3913C28.6725 31.3913 27.3132 30.7681 26.2627 30.2873C25.218 29.765 24.3811 29.397 23.1822 29.397C21.9773 29.4503 21.1404 29.8184 20.1018 30.2873C19.4192 30.6019 18.5882 30.9699 17.6445 31.1776V29.0824C18.1134 28.9281 18.5823 28.7144 19.0512 28.5126C20.0958 28.0437 21.4016 27.4086 23.1763 27.4086C24.951 27.4086 26.2568 28.0318 27.3014 28.5126C28.4055 28.9815 29.1829 29.3495 30.4354 29.3495C31.6936 29.3495 32.5306 28.9815 33.5693 28.5126C34.6733 28.0437 35.9791 27.4086 37.7538 27.4086H37.8071C39.5818 27.4086 40.8876 28.0318 41.9322 28.5126C42.4188 28.7737 42.8342 28.9281 43.3032 29.0824ZM18.5762 27.6223C18.1073 27.83 17.7393 28.0437 17.3179 28.1445L16.6353 28.4116V29.1476L12.0413 27.9368L11.7742 28.9815L11.5131 29.9193C11.4122 30.2873 11.0917 30.4891 10.7296 30.3882L7.49479 29.4979C7.1268 29.4444 6.92499 29.0764 7.0259 28.7144L7.28705 27.7232L9.22794 20.5116C9.43568 19.7282 9.69684 19.1524 10.3319 18.4164L16.5938 11.104C17.1161 10.4808 18.1073 10.0594 19.0036 10C19.2707 10 19.5734 10 19.7396 10.0534L31.1831 13.1339C32.2871 13.4485 33.3258 14.594 33.5335 15.698L35.3082 25.1591C35.4091 25.7823 35.4091 26.2631 35.3616 26.732C34.4713 26.9991 33.6878 27.3552 33.0646 27.6223C32.9102 27.7231 32.7975 27.7766 32.6431 27.83C32.4888 27.0465 31.9072 26.3165 31.0702 26.1028C29.9188 25.7882 28.8266 26.4707 28.5062 27.5629C28.4528 27.7172 28.4528 27.83 28.4528 27.9843C28.245 27.8835 27.9839 27.7766 27.6693 27.6164C26.6247 27.1475 25.1052 26.4114 23.1228 26.4114C21.1403 26.4173 19.6209 27.1534 18.5762 27.6223ZM13.5074 21.3485C13.3531 21.2951 13.2403 21.2951 13.086 21.2951C12.9316 21.2951 12.8189 21.2951 12.718 21.2951C11.8811 21.3485 11.1451 21.9777 10.9908 22.8086C10.6762 23.9126 11.3588 25.0522 12.4509 25.3727C13.5549 25.6873 14.6945 25.0047 15.015 23.9126C15.2821 22.8146 14.6054 21.6571 13.5074 21.3485ZM32.3285 24.067L31.1237 17.5321C30.8566 16.2737 30.4411 15.8583 29.2955 15.5437L20.4102 13.1339C20.0956 13.033 19.8404 12.9796 19.6267 12.9796C19.5258 12.9796 19.4724 12.9796 19.3596 12.9796C18.7898 12.9796 18.3684 13.2942 17.7868 13.9174L13.5014 18.9922L32.3285 24.067ZM37.8129 31.0173H37.7595C35.9849 31.0173 34.6791 31.6405 33.575 32.1213C32.4711 32.6021 31.6935 32.9583 30.4411 32.9583C29.1828 32.9583 28.3994 32.5902 27.3072 32.1213C26.2625 31.599 24.9568 31.0173 23.1821 31.0173C21.4074 31.0173 20.1016 31.6405 19.057 32.1213C18.5881 32.329 18.1192 32.5428 17.6503 32.6912V34.7863C18.5881 34.5786 19.425 34.2165 20.1076 33.896C21.1522 33.4271 21.9891 33.0057 23.1881 33.0057C24.387 33.0057 25.2298 33.4271 26.2685 33.896C27.3132 34.3649 28.6783 35 30.453 35C32.2276 35 33.5869 34.4302 34.6375 33.896C35.6821 33.4271 36.519 33.0057 37.7179 33.0057C37.7179 33.0057 37.7179 33.0057 37.7713 33.0057C38.9762 33.0057 39.8131 33.4271 40.8518 33.896C41.5344 34.2106 42.3119 34.5786 43.309 34.7863V32.6912C42.8402 32.5367 42.4187 32.3765 41.9499 32.1213C40.8934 31.6405 39.5876 31.0173 37.8129 31.0173Z" fill="white"/>
</svg>
